<svg width="559" height="140" viewBox="0 0 559 140" fill="none" xmlns="http://www.w3.org/2000/svg">
<path d="M42.0014 35.8448C42.0413 36.0522 42.9543 36.7839 44.041 37.526C47.7295 39.9731 48.1601 42.213 45.602 45.8712C44.022 48.1433 43.9728 49.2267 45.5767 47.0791C48.9694 42.4054 50.3204 42.0669 54.5953 44.6622C55.5258 45.2616 56.4738 45.7289 56.6395 45.6979C56.8051 45.6669 56.2299 45.13 55.3823 44.515C51.136 41.3987 50.8171 39.7395 53.6219 35.1329C54.6014 33.5317 54.56 33.5394 52.725 35.6014C49.63 39.1451 48.338 39.3437 44.4089 36.9846C43.0498 36.1644 41.9616 35.6374 42.0014 35.8448Z" fill="#BFADFF"/>
<path d="M31.383 41.0964C31.7447 41.4155 32.0379 42.0482 32.0268 42.437C31.9727 43.0487 32.2117 43.1759 33.123 43.0055C34.0757 42.8274 34.2509 42.6227 33.9322 42.0807C33.7282 41.6892 33.7329 41.0437 33.9925 40.6085C34.3699 39.8933 34.3285 39.9011 33.6037 40.5952C32.871 41.2479 32.6225 41.2944 31.7398 40.9438C30.7663 40.5672 30.7249 40.5749 31.383 41.0964Z" fill="#BFADFF"/>
<path d="M24.6832 47.7632C39.6289 58.5471 44.2119 65.4248 42.598 74.6644C41.9072 78.6609 39.0071 85.0042 35.116 91.1031C29.5684 99.7463 29.3327 100.306 33.8945 94.1246C38.9915 87.1557 42.2537 83.3658 45.4826 80.7424C54.4541 73.3927 62.9681 74.3789 78.6131 84.5593C85.9169 89.2953 86.5526 89.4772 80.4708 85.0713C71.2118 78.4235 67.104 74.4649 64.3502 69.7374C62.8714 67.1779 61.9084 63.0609 62.1198 60.1424C62.452 55.3965 65.2549 48.7706 70.0077 41.3503C74.794 33.8808 74.9213 33.4273 70.4599 39.461C59.3309 54.5621 52.5176 58.6293 42.6332 56.0946C37.4886 54.7792 33.26 52.6479 25.1165 47.3384C18.348 42.932 18.2062 43.0874 24.6832 47.7632ZM44.6711 57.9909C49.7041 58.7257 53.4989 57.9301 57.7219 55.1208C62.751 51.817 62.4945 51.822 61.6363 54.9475C60.6522 58.3113 60.3836 62.2718 60.9258 65.0924C61.3483 67.2908 63.6894 71.8806 65.7466 74.5468C66.3697 75.3327 66.7203 76.0406 66.5132 76.0793C66.3061 76.118 64.9598 75.8112 63.5068 75.3954C56.7531 73.5214 51.7331 74.4172 45.7212 78.6352C44.3242 79.627 43.053 80.3803 42.9542 80.3129C42.8554 80.2454 43.0878 78.9988 43.4954 77.5475C45.3551 70.9261 44.1831 64.8286 40.0608 59.4547C37.8888 56.638 37.8505 56.2155 39.7895 56.9271C40.6642 57.2363 42.8613 57.7278 44.6711 57.9909Z" fill="#BFADFF"/>
<path d="M89.3926 42.4095C87.1961 45.2695 86.1112 45.4294 82.5342 43.563L80.8613 42.6727L82.7861 44.2035C85.2861 46.2712 85.5572 47.6815 83.9979 50.5084C82.8416 52.5293 83.0407 52.4491 85.1768 49.9442C86.6454 48.2085 88.2513 48.0801 90.5409 49.4997C92.8305 50.9193 93.0232 50.5825 90.8594 48.9245C88.1778 46.8048 88.1251 46.0841 90.2306 42.0809C91.312 40.1169 91.1129 40.1971 89.3926 42.4095Z" fill="#BFADFF"/>
<path d="M106.608 56.0778C106.788 56.3449 106.801 56.8582 106.641 57.1458C106.415 57.5318 106.729 57.602 107.723 57.4162C108.717 57.2303 108.983 57.0516 108.63 56.774C108.375 56.5638 108.196 56.0816 108.265 55.768C108.351 55.3222 108.029 55.2105 107.325 55.3422C106.62 55.4739 106.362 55.694 106.608 56.0778Z" fill="#BFADFF"/>
<path d="M21.1304 74.5967C21.1702 74.8041 21.6387 75.2321 22.1741 75.5617C23.4344 76.3144 23.5763 77.2762 22.737 78.9371L22.0155 80.3181L23.1576 79.1162C24.4415 77.7589 25.254 77.5211 26.1255 78.2605C27.3015 79.2437 27.5292 78.6425 26.3867 77.61L25.2442 76.5775L25.9084 75.1213L26.6139 73.6572L25.3236 74.7579L24.0413 75.9001L22.542 75.0203C21.7262 74.5712 21.0825 74.3478 21.1304 74.5967Z" fill="#BFADFF"/>
<path d="M88.1449 69.4139C94.8864 74.1261 97.6017 77.3138 98.3989 81.4618C99.1244 85.2364 97.7071 89.025 92.9384 96.3623C91.6833 98.3158 90.7866 99.9015 90.9937 99.8628C91.1594 99.8318 92.5706 98.021 94.1252 95.8396C100.269 87.171 104.804 84.647 110.855 86.4375C113.497 87.2326 115.302 88.1412 120.549 91.3282L124.585 93.7963L120.816 90.9344C115.937 87.206 114.433 85.8543 112.72 83.6394C108.843 78.6493 109.532 73.7508 115.499 64.3848C116.72 62.4805 117.584 60.944 117.418 60.975C117.252 61.006 115.941 62.6691 114.521 64.6536C110.158 70.7548 107.004 73.3212 103.11 74.0493C99.4158 74.6971 96.0652 73.5619 89.1964 69.3032C86.808 67.8161 84.7399 66.6559 84.5742 66.6869C84.4085 66.7179 86.013 67.9218 88.1449 69.4139ZM101.444 75.65C103.636 75.6697 106.356 74.8604 108.226 73.6513C108.874 73.2293 108.932 73.3045 108.89 74.4294C108.712 77.2988 109.412 81.1641 110.385 82.873L111.349 84.5405L109.794 84.4875C107.726 84.4444 102.714 85.3817 101.137 86.1063L99.9165 86.6782L100.043 83.9903C100.212 81.2946 99.4308 78.3468 97.9583 76.044C97.5822 75.4268 97.6491 75.3283 98.3597 75.4533C98.8058 75.5417 100.236 75.618 101.444 75.65Z" fill="#BFADFF"/>
<path d="M56.8239 86.6148C57.3831 87.0688 57.439 87.3592 57.1762 88.2247C56.888 89.181 56.896 89.2225 57.4551 88.5593C57.9393 87.9531 58.2293 87.8989 59.0131 88.182C59.8464 88.4989 59.8799 88.4497 59.3795 87.8557C58.9939 87.4122 58.8982 86.9144 59.0925 86.3624C59.2963 85.6368 59.2389 85.5616 58.6894 86.0511C58.2067 86.4421 57.7097 86.5351 57.074 86.3532C56.2487 86.0778 56.2566 86.1193 56.8239 86.6148Z" fill="#BFADFF"/>
<path d="M50.5091 98.1944C58.5078 104.09 59.136 107.582 53.7287 116.285C51.3093 120.218 51.6996 120.016 55.1242 115.508C60.3614 108.599 64.4031 107.972 72.1435 112.97C74.1033 114.236 75.6935 115.142 75.6616 114.976C75.6297 114.81 74.2562 113.692 72.6517 112.488C68.9153 109.792 67.0445 107.65 66.2348 105.223C65.3518 102.638 66.2848 99.4556 69.2314 94.6935C70.52 92.6907 71.4501 91.0558 71.2844 91.0868C71.1187 91.1178 69.8747 92.6825 68.4715 94.5348C65.4467 98.6669 63.3998 100.296 60.7074 100.799C58.015 101.303 55.5057 100.526 51.1575 97.7724C49.1642 96.5552 47.4259 95.5482 47.2602 95.5792C47.0945 95.6102 48.5668 96.7959 50.5091 98.1944ZM64.6272 104.449C64.9222 105.984 65.1518 107.402 65.1423 107.576C65.0834 107.716 63.6655 108.153 61.9752 108.512L58.8766 109.134L57.6648 102.829L64.085 101.629L64.6272 104.449Z" fill="#BFADFF"/>
<path d="M34.3812 108.042C34.7843 108.354 35.0282 108.953 35.0171 109.342C34.963 109.953 35.202 110.08 36.1133 109.91C37.066 109.732 37.2412 109.527 36.9225 108.985C36.7185 108.594 36.7152 107.907 36.9748 107.472C37.3523 106.756 37.3029 106.723 36.7438 107.386C36.2516 107.951 35.8868 108.062 34.9372 107.81C33.8968 107.531 33.8219 107.588 34.3812 108.042Z" fill="#BFADFF"/>
<path d="M42.0014 35.8448C42.0413 36.0522 42.9543 36.7839 44.041 37.526C47.7295 39.9731 48.1601 42.213 45.602 45.8712C44.022 48.1433 43.9728 49.2267 45.5767 47.0791C48.9694 42.4054 50.3204 42.0669 54.5953 44.6622C55.5258 45.2616 56.4738 45.7289 56.6395 45.6979C56.8051 45.6669 56.2299 45.13 55.3823 44.515C51.136 41.3987 50.8171 39.7395 53.6219 35.1329C54.6014 33.5317 54.56 33.5394 52.725 35.6014C49.63 39.1451 48.338 39.3437 44.4089 36.9846C43.0498 36.1644 41.9616 35.6374 42.0014 35.8448Z" stroke="#BFADFF"/>
<path d="M31.383 41.0964C31.7447 41.4155 32.0379 42.0482 32.0268 42.437C31.9727 43.0487 32.2117 43.1759 33.123 43.0055C34.0757 42.8274 34.2509 42.6227 33.9322 42.0807C33.7282 41.6892 33.7329 41.0437 33.9925 40.6085C34.3699 39.8933 34.3285 39.9011 33.6037 40.5952C32.871 41.2479 32.6225 41.2944 31.7398 40.9438C30.7663 40.5672 30.7249 40.5749 31.383 41.0964Z" stroke="#BFADFF"/>
<path d="M24.6832 47.7632C39.6289 58.5471 44.2119 65.4248 42.598 74.6644C41.9072 78.6609 39.0071 85.0042 35.116 91.1031C29.5684 99.7463 29.3327 100.306 33.8945 94.1246C38.9915 87.1557 42.2537 83.3658 45.4826 80.7424C54.4541 73.3927 62.9681 74.3789 78.6131 84.5593C85.9169 89.2953 86.5526 89.4772 80.4708 85.0713C71.2118 78.4235 67.104 74.4649 64.3502 69.7374C62.8714 67.1779 61.9084 63.0609 62.1198 60.1424C62.452 55.3965 65.2549 48.7706 70.0077 41.3503C74.794 33.8808 74.9213 33.4273 70.4599 39.461C59.3309 54.5621 52.5176 58.6293 42.6332 56.0946C37.4886 54.7792 33.26 52.6479 25.1165 47.3384C18.348 42.932 18.2062 43.0874 24.6832 47.7632ZM44.6711 57.9909C49.7041 58.7257 53.4989 57.9301 57.7219 55.1208C62.751 51.817 62.4945 51.822 61.6363 54.9475C60.6522 58.3113 60.3836 62.2718 60.9258 65.0924C61.3483 67.2908 63.6894 71.8806 65.7466 74.5468C66.3697 75.3327 66.7203 76.0406 66.5132 76.0793C66.3061 76.118 64.9598 75.8112 63.5068 75.3954C56.7531 73.5214 51.7331 74.4172 45.7212 78.6352C44.3242 79.627 43.053 80.3803 42.9542 80.3129C42.8554 80.2454 43.0878 78.9988 43.4954 77.5475C45.3551 70.9261 44.1831 64.8286 40.0608 59.4547C37.8888 56.638 37.8505 56.2155 39.7895 56.9271C40.6642 57.2363 42.8613 57.7278 44.6711 57.9909Z" stroke="#BFADFF"/>
<path d="M89.3926 42.4095C87.1961 45.2695 86.1112 45.4294 82.5342 43.563L80.8613 42.6727L82.7861 44.2035C85.2861 46.2712 85.5572 47.6815 83.9979 50.5084C82.8416 52.5293 83.0407 52.4491 85.1768 49.9442C86.6454 48.2085 88.2513 48.0801 90.5409 49.4997C92.8305 50.9193 93.0232 50.5825 90.8594 48.9245C88.1778 46.8048 88.1251 46.0841 90.2306 42.0809C91.312 40.1169 91.1129 40.1971 89.3926 42.4095Z" stroke="#BFADFF"/>
<path d="M106.608 56.0778C106.788 56.3449 106.801 56.8582 106.641 57.1458C106.415 57.5318 106.729 57.602 107.723 57.4162C108.717 57.2303 108.983 57.0516 108.63 56.774C108.375 56.5638 108.196 56.0816 108.265 55.768C108.351 55.3222 108.029 55.2105 107.325 55.3422C106.62 55.4739 106.362 55.694 106.608 56.0778Z" stroke="#BFADFF"/>
<path d="M21.1304 74.5967C21.1702 74.8041 21.6387 75.2321 22.1741 75.5617C23.4344 76.3144 23.5763 77.2762 22.737 78.9371L22.0155 80.3181L23.1576 79.1162C24.4415 77.7589 25.254 77.5211 26.1255 78.2605C27.3015 79.2437 27.5292 78.6425 26.3867 77.61L25.2442 76.5775L25.9084 75.1213L26.6139 73.6572L25.3236 74.7579L24.0413 75.9001L22.542 75.0203C21.7262 74.5712 21.0825 74.3478 21.1304 74.5967Z" stroke="#BFADFF"/>
<path d="M88.1449 69.4139C94.8864 74.1261 97.6017 77.3138 98.3989 81.4618C99.1244 85.2364 97.7071 89.025 92.9384 96.3623C91.6833 98.3158 90.7866 99.9015 90.9937 99.8628C91.1594 99.8318 92.5706 98.021 94.1252 95.8396C100.269 87.171 104.804 84.647 110.855 86.4375C113.497 87.2326 115.302 88.1412 120.549 91.3282L124.585 93.7963L120.816 90.9344C115.937 87.206 114.433 85.8543 112.72 83.6394C108.843 78.6493 109.532 73.7508 115.499 64.3848C116.72 62.4805 117.584 60.944 117.418 60.975C117.252 61.006 115.941 62.6691 114.521 64.6536C110.158 70.7548 107.004 73.3212 103.11 74.0493C99.4158 74.6971 96.0652 73.5619 89.1964 69.3032C86.808 67.8161 84.7399 66.6559 84.5742 66.6869C84.4085 66.7179 86.013 67.9218 88.1449 69.4139ZM101.444 75.65C103.636 75.6697 106.356 74.8604 108.226 73.6513C108.874 73.2293 108.932 73.3045 108.89 74.4294C108.712 77.2988 109.412 81.1641 110.385 82.873L111.349 84.5405L109.794 84.4875C107.726 84.4444 102.714 85.3817 101.137 86.1063L99.9165 86.6782L100.043 83.9903C100.212 81.2946 99.4308 78.3468 97.9583 76.044C97.5822 75.4268 97.6491 75.3283 98.3597 75.4533C98.8058 75.5417 100.236 75.618 101.444 75.65Z" stroke="#BFADFF"/>
<path d="M56.8239 86.6148C57.3831 87.0688 57.439 87.3592 57.1762 88.2247C56.888 89.181 56.896 89.2225 57.4551 88.5593C57.9393 87.9531 58.2293 87.8989 59.0131 88.182C59.8464 88.4989 59.8799 88.4497 59.3795 87.8557C58.9939 87.4122 58.8982 86.9144 59.0925 86.3624C59.2963 85.6368 59.2389 85.5616 58.6894 86.0511C58.2067 86.4421 57.7097 86.5351 57.074 86.3532C56.2487 86.0778 56.2566 86.1193 56.8239 86.6148Z" stroke="#BFADFF"/>
<path d="M50.5091 98.1944C58.5078 104.09 59.136 107.582 53.7287 116.285C51.3093 120.218 51.6996 120.016 55.1242 115.508C60.3614 108.599 64.4031 107.972 72.1435 112.97C74.1033 114.236 75.6935 115.142 75.6616 114.976C75.6297 114.81 74.2562 113.692 72.6517 112.488C68.9153 109.792 67.0445 107.65 66.2348 105.223C65.3518 102.638 66.2848 99.4556 69.2314 94.6935C70.52 92.6907 71.4501 91.0558 71.2844 91.0868C71.1187 91.1178 69.8747 92.6825 68.4715 94.5348C65.4467 98.6669 63.3998 100.296 60.7074 100.799C58.015 101.303 55.5057 100.526 51.1575 97.7724C49.1642 96.5552 47.4259 95.5482 47.2602 95.5792C47.0945 95.6102 48.5668 96.7959 50.5091 98.1944ZM64.6272 104.449C64.9222 105.984 65.1518 107.402 65.1423 107.576C65.0834 107.716 63.6655 108.153 61.9752 108.512L58.8766 109.134L57.6648 102.829L64.085 101.629L64.6272 104.449Z" stroke="#BFADFF"/>
<path d="M34.3812 108.042C34.7843 108.354 35.0282 108.953 35.0171 109.342C34.963 109.953 35.202 110.08 36.1133 109.91C37.066 109.732 37.2412 109.527 36.9225 108.985C36.7185 108.594 36.7152 107.907 36.9748 107.472C37.3523 106.756 37.3029 106.723 36.7438 107.386C36.2516 107.951 35.8868 108.062 34.9372 107.81C33.8968 107.531 33.8219 107.588 34.3812 108.042Z" stroke="#BFADFF"/>
<path d="M521.704 38.0524C521.626 38.2485 520.591 38.7943 519.384 39.3176C515.299 41.0232 514.453 43.1413 516.273 47.2171C517.395 49.747 517.238 50.8202 516.069 48.408C513.621 43.1772 512.359 42.5894 507.67 44.3296C506.643 44.7423 505.624 45.022 505.467 44.9602C505.31 44.8985 505.977 44.4799 506.925 44.0363C511.684 41.7791 512.311 40.2101 510.428 35.1562C509.769 33.3987 509.808 33.4142 511.22 35.7858C513.589 39.8508 514.82 40.2901 519.125 38.7164C520.614 38.168 521.782 37.8562 521.704 38.0524Z" fill="#BFADFF"/>
<path d="M531.138 45.2168C530.723 45.4618 530.315 46.0276 530.252 46.4115C530.19 47.0224 529.931 47.1021 529.069 46.7625C528.167 46.4074 528.033 46.1733 528.449 45.7014C528.723 45.3555 528.841 44.7208 528.668 44.2443C528.433 43.4707 528.472 43.4861 529.052 44.3048C529.648 45.0842 529.884 45.1768 530.817 44.9994C531.844 44.8137 531.883 44.8291 531.138 45.2168Z" fill="#BFADFF"/>
<path d="M536.457 53.03C519.742 60.7937 513.941 66.6809 513.779 76.059C513.702 80.1141 515.35 86.8913 518.018 93.6159C521.831 103.152 521.957 103.746 518.646 96.8138C514.959 89.0069 512.472 84.6686 509.797 81.4821C502.377 72.5687 493.83 71.9274 476.543 78.9663C468.475 82.236 467.816 82.2945 474.622 79.1179C484.97 74.3404 489.753 71.2299 493.351 67.1083C495.287 64.8746 497.011 61.0139 497.355 58.108C497.926 53.3849 496.426 46.3486 493.162 38.1636C489.874 29.9239 489.835 29.4545 493.075 36.2229C501.148 53.1557 507.07 58.4376 517.255 57.8175C522.556 57.4984 527.111 56.2051 536.112 52.531C543.591 49.4837 543.701 49.6631 536.457 53.03ZM514.896 59.2943C509.814 59.0642 506.239 57.5656 502.623 54.0085C498.309 49.8135 498.56 49.8669 498.812 53.0982C499.142 56.5874 498.657 60.5273 497.591 63.1946C496.761 65.2734 493.594 69.3378 491.07 71.567C490.31 72.2209 489.831 72.8497 490.028 72.9269C490.224 73.0041 491.604 72.9573 493.109 72.8237C500.095 72.2605 504.855 74.0891 509.961 79.3677C511.146 80.6057 512.252 81.5858 512.361 81.5383C512.471 81.4907 512.479 80.2226 512.353 78.7204C511.778 71.8668 514.082 66.1009 519.146 61.6033C521.811 59.2481 521.929 58.8404 519.89 59.1726C518.973 59.3108 516.723 59.3781 514.896 59.2943Z" fill="#BFADFF"/>
<path d="M473.926 35.5386C475.543 38.7624 476.578 39.1245 480.443 37.9681L482.254 37.4101L480.075 38.5493C477.229 40.1071 476.696 41.4408 477.693 44.5114C478.446 46.7146 478.266 46.5981 476.642 43.7345C475.528 41.7525 473.975 41.3228 471.458 42.2839C468.942 43.245 468.816 42.8778 471.254 41.6588C474.288 40.0843 474.476 39.3867 473.166 35.0575C472.475 32.9245 472.656 33.0409 473.926 35.5386Z" fill="#BFADFF"/>
<path d="M454.438 45.7057C454.21 45.934 454.101 46.4355 454.203 46.7481C454.352 47.1699 454.03 47.1795 453.089 46.809C452.148 46.4385 451.921 46.2128 452.321 46.0071C452.611 45.8489 452.877 45.4091 452.869 45.0882C452.869 44.6342 453.206 44.5854 453.873 44.8478C454.539 45.1103 454.751 45.3752 454.438 45.7057Z" fill="#BFADFF"/>
<path d="M534.872 80.0513C534.794 80.2474 534.253 80.5792 533.665 80.8016C532.285 81.3024 531.964 82.22 532.474 84.0096L532.921 85.5022L532.027 84.106C531.023 82.5305 530.27 82.1433 529.274 82.7046C527.934 83.4478 527.824 82.8144 529.141 82.0165L530.458 81.2186L530.081 79.663L529.665 78.092L530.724 79.4168L531.767 80.7808L533.406 80.2003C534.292 79.9136 534.966 79.8159 534.872 80.0513Z" fill="#BFADFF"/>
<path d="M470.046 62.2919C462.535 65.6446 459.266 68.2614 457.699 72.1839C456.273 75.7533 456.949 79.7415 460.244 87.848C461.107 90.0036 461.688 91.7303 461.492 91.6531C461.335 91.5913 460.292 89.5463 459.178 87.1104C454.784 77.4366 450.807 74.1007 444.527 74.7148C441.783 74.9962 439.838 75.5471 434.084 77.6846L429.654 79.3452L433.895 77.2474C439.391 74.5085 441.124 73.4657 443.225 71.6146C447.975 67.4475 448.225 62.507 444.136 52.1819C443.297 50.0809 442.74 48.409 442.897 48.4707C443.053 48.5325 444.026 50.4135 445.046 52.6308C448.177 59.4467 450.789 62.5632 454.474 64.0143C457.98 65.349 461.484 64.8677 469.035 61.9844C471.661 60.9757 473.911 60.2275 474.068 60.2892C474.225 60.3509 472.422 61.2298 470.046 62.2919ZM455.808 65.9011C453.651 65.5061 451.134 64.1972 449.526 62.6563C448.969 62.1193 448.899 62.1823 448.727 63.2948C448.359 66.146 446.941 69.8093 445.663 71.3036L444.401 72.7587L445.938 73.0006C447.977 73.3494 452.721 75.2172 454.133 76.227L455.223 77.0193L455.606 74.3559C455.951 71.677 457.275 68.93 459.156 66.9471C459.642 66.4121 459.595 66.3028 458.874 66.2911C458.419 66.2936 457 66.098 455.808 65.9011Z" fill="#BFADFF"/>
<path d="M497.55 85.1043C496.915 85.4444 496.806 85.7189 496.9 86.6186C497.002 87.6121 496.986 87.6513 496.563 86.8944C496.202 86.2076 495.927 86.0995 495.104 86.2293C494.226 86.3829 494.202 86.3283 494.806 85.8396C495.269 85.477 495.457 85.0063 495.37 84.4276C495.307 83.6765 495.378 83.6135 495.825 84.198C496.225 84.6733 496.695 84.8585 497.354 84.8001C498.217 84.6857 498.201 84.7249 497.55 85.1043Z" fill="#BFADFF"/>
<path d="M501.562 97.669C492.593 101.946 491.316 105.256 494.98 114.824C496.612 119.144 496.267 118.872 493.757 113.798C489.92 106.023 486.07 104.643 477.524 108.088C475.36 108.961 473.627 109.55 473.69 109.393C473.753 109.236 475.313 108.397 477.116 107.519C481.295 105.578 483.537 103.828 484.791 101.598C486.147 99.2262 485.832 95.9247 483.839 90.6914C482.952 88.4812 482.348 86.6999 482.505 86.7616C482.662 86.8234 483.588 88.5951 484.615 90.6793C486.804 95.3088 488.506 97.2953 491.055 98.2987C493.604 99.3022 496.215 99.0137 501.005 97.132C503.192 96.3136 505.09 95.6534 505.247 95.7151C505.403 95.7769 503.733 96.6628 501.562 97.669ZM486.516 101.142C485.936 102.593 485.442 103.942 485.419 104.115C485.45 104.263 486.76 104.96 488.352 105.632L491.277 106.829L493.659 100.867L487.581 98.4746L486.516 101.142Z" fill="#BFADFF"/>
<path d="M515.537 110.389C515.082 110.618 514.73 111.16 514.667 111.544C514.604 112.155 514.346 112.235 513.483 111.895C512.581 111.54 512.448 111.306 512.863 110.834C513.138 110.488 513.271 109.814 513.098 109.338C512.863 108.564 512.918 108.54 513.341 109.297C513.718 109.945 514.055 110.123 515.035 110.055C516.109 109.978 516.172 110.048 515.537 110.389Z" fill="#BFADFF"/>
<path d="M521.704 38.0524C521.626 38.2485 520.591 38.7943 519.384 39.3176C515.299 41.0232 514.453 43.1413 516.273 47.2171C517.395 49.747 517.238 50.8202 516.069 48.408C513.621 43.1772 512.359 42.5894 507.67 44.3296C506.643 44.7423 505.624 45.022 505.467 44.9602C505.31 44.8985 505.977 44.4799 506.925 44.0363C511.684 41.7791 512.311 40.2101 510.428 35.1562C509.769 33.3987 509.808 33.4142 511.22 35.7858C513.589 39.8508 514.82 40.2901 519.125 38.7164C520.614 38.168 521.782 37.8562 521.704 38.0524Z" stroke="#BFADFF"/>
<path d="M531.138 45.2168C530.723 45.4618 530.315 46.0276 530.252 46.4115C530.19 47.0224 529.931 47.1021 529.069 46.7625C528.167 46.4074 528.033 46.1733 528.449 45.7014C528.723 45.3555 528.841 44.7208 528.668 44.2443C528.433 43.4707 528.472 43.4861 529.052 44.3048C529.648 45.0842 529.884 45.1768 530.817 44.9994C531.844 44.8137 531.883 44.8291 531.138 45.2168Z" stroke="#BFADFF"/>
<path d="M536.457 53.03C519.742 60.7937 513.941 66.6809 513.779 76.059C513.702 80.1141 515.35 86.8913 518.018 93.6159C521.831 103.152 521.957 103.746 518.646 96.8138C514.959 89.0069 512.472 84.6686 509.797 81.4821C502.377 72.5687 493.83 71.9274 476.543 78.9663C468.475 82.236 467.816 82.2945 474.622 79.1179C484.97 74.3404 489.753 71.2299 493.351 67.1083C495.287 64.8746 497.011 61.0139 497.355 58.108C497.926 53.3849 496.426 46.3486 493.162 38.1636C489.874 29.9239 489.835 29.4545 493.075 36.2229C501.148 53.1557 507.07 58.4376 517.255 57.8175C522.556 57.4984 527.111 56.2051 536.112 52.531C543.591 49.4837 543.701 49.6631 536.457 53.03ZM514.896 59.2943C509.814 59.0642 506.239 57.5656 502.623 54.0085C498.309 49.8135 498.56 49.8669 498.812 53.0982C499.142 56.5874 498.657 60.5273 497.591 63.1946C496.761 65.2734 493.594 69.3378 491.07 71.567C490.31 72.2209 489.831 72.8497 490.028 72.9269C490.224 73.0041 491.604 72.9573 493.109 72.8237C500.095 72.2605 504.855 74.0891 509.961 79.3677C511.146 80.6057 512.252 81.5858 512.361 81.5383C512.471 81.4907 512.479 80.2226 512.353 78.7204C511.778 71.8668 514.082 66.1009 519.146 61.6033C521.811 59.2481 521.929 58.8404 519.89 59.1726C518.973 59.3108 516.723 59.3781 514.896 59.2943Z" stroke="#BFADFF"/>
<path d="M473.926 35.5386C475.543 38.7624 476.578 39.1245 480.443 37.9681L482.254 37.4101L480.075 38.5493C477.229 40.1071 476.696 41.4408 477.693 44.5114C478.446 46.7146 478.266 46.5981 476.642 43.7345C475.528 41.7525 473.975 41.3228 471.458 42.2839C468.942 43.245 468.816 42.8778 471.254 41.6588C474.288 40.0843 474.476 39.3867 473.166 35.0575C472.475 32.9245 472.656 33.0409 473.926 35.5386Z" stroke="#BFADFF"/>
<path d="M454.438 45.7057C454.21 45.934 454.101 46.4355 454.203 46.7481C454.352 47.1699 454.03 47.1795 453.089 46.809C452.148 46.4385 451.921 46.2128 452.321 46.0071C452.611 45.8489 452.877 45.4091 452.869 45.0882C452.869 44.6342 453.206 44.5854 453.873 44.8478C454.539 45.1103 454.751 45.3752 454.438 45.7057Z" stroke="#BFADFF"/>
<path d="M534.872 80.0513C534.794 80.2474 534.253 80.5792 533.665 80.8016C532.285 81.3024 531.964 82.22 532.474 84.0096L532.921 85.5022L532.027 84.106C531.023 82.5305 530.27 82.1433 529.274 82.7046C527.934 83.4478 527.824 82.8144 529.141 82.0165L530.458 81.2186L530.081 79.663L529.665 78.092L530.724 79.4168L531.767 80.7808L533.406 80.2003C534.292 79.9136 534.966 79.8159 534.872 80.0513Z" stroke="#BFADFF"/>
<path d="M470.046 62.2919C462.535 65.6446 459.266 68.2614 457.699 72.1839C456.273 75.7533 456.949 79.7415 460.244 87.848C461.107 90.0036 461.688 91.7303 461.492 91.6531C461.335 91.5913 460.292 89.5463 459.178 87.1104C454.784 77.4366 450.807 74.1007 444.527 74.7148C441.783 74.9962 439.838 75.5471 434.084 77.6846L429.654 79.3452L433.895 77.2474C439.391 74.5085 441.124 73.4657 443.225 71.6146C447.975 67.4475 448.225 62.507 444.136 52.1819C443.297 50.0809 442.74 48.409 442.897 48.4707C443.053 48.5325 444.026 50.4135 445.046 52.6308C448.177 59.4467 450.789 62.5632 454.474 64.0143C457.98 65.349 461.484 64.8677 469.035 61.9844C471.661 60.9757 473.911 60.2275 474.068 60.2892C474.225 60.3509 472.422 61.2298 470.046 62.2919ZM455.808 65.9011C453.651 65.5061 451.134 64.1972 449.526 62.6563C448.969 62.1193 448.899 62.1823 448.727 63.2948C448.359 66.146 446.941 69.8093 445.663 71.3036L444.401 72.7587L445.938 73.0006C447.977 73.3494 452.721 75.2172 454.133 76.227L455.223 77.0193L455.606 74.3559C455.951 71.677 457.275 68.93 459.156 66.9471C459.642 66.4121 459.595 66.3028 458.874 66.2911C458.419 66.2936 457 66.098 455.808 65.9011Z" stroke="#BFADFF"/>
<path d="M497.55 85.1043C496.915 85.4444 496.806 85.7189 496.9 86.6186C497.002 87.6121 496.986 87.6513 496.563 86.8944C496.202 86.2076 495.927 86.0995 495.104 86.2293C494.226 86.3829 494.202 86.3283 494.806 85.8396C495.269 85.477 495.457 85.0063 495.37 84.4276C495.307 83.6765 495.378 83.6135 495.825 84.198C496.225 84.6733 496.695 84.8585 497.354 84.8001C498.217 84.6857 498.201 84.7249 497.55 85.1043Z" stroke="#BFADFF"/>
<path d="M501.562 97.669C492.593 101.946 491.316 105.256 494.98 114.824C496.612 119.144 496.267 118.872 493.757 113.798C489.92 106.023 486.07 104.643 477.524 108.088C475.36 108.961 473.627 109.55 473.69 109.393C473.753 109.236 475.313 108.397 477.116 107.519C481.295 105.578 483.537 103.828 484.791 101.598C486.147 99.2262 485.832 95.9247 483.839 90.6914C482.952 88.4812 482.348 86.6999 482.505 86.7616C482.662 86.8234 483.588 88.5951 484.615 90.6793C486.804 95.3088 488.506 97.2953 491.055 98.2987C493.604 99.3022 496.215 99.0137 501.005 97.132C503.192 96.3136 505.09 95.6534 505.247 95.7151C505.403 95.7769 503.733 96.6628 501.562 97.669ZM486.516 101.142C485.936 102.593 485.442 103.942 485.419 104.115C485.45 104.263 486.76 104.96 488.352 105.632L491.277 106.829L493.659 100.867L487.581 98.4746L486.516 101.142Z" stroke="#BFADFF"/>
<path d="M515.537 110.389C515.082 110.618 514.73 111.16 514.667 111.544C514.604 112.155 514.346 112.235 513.483 111.895C512.581 111.54 512.448 111.306 512.863 110.834C513.138 110.488 513.271 109.814 513.098 109.338C512.863 108.564 512.918 108.54 513.341 109.297C513.718 109.945 514.055 110.123 515.035 110.055C516.109 109.978 516.172 110.048 515.537 110.389Z" stroke="#BFADFF"/>
<mask id="path-3-outside-1_8_17" maskUnits="userSpaceOnUse" x="87.9658" y="35.488" width="377" height="82" fill="black">
<rect fill="white" x="87.9658" y="35.488" width="377" height="82"/>
<path d="M94.4422 111.488L104.217 41.6698H130.486C138.631 41.6698 144.682 43.9971 148.639 48.6516C152.653 53.248 154.137 59.3862 153.089 67.0662L150.297 86.4407C149.249 94.0625 146.079 100.143 140.784 104.681C135.548 109.219 128.828 111.488 120.624 111.488H94.4422ZM113.729 98.3971H120.711C124.668 98.3971 127.548 97.408 129.351 95.4298C131.155 93.4516 132.406 89.8734 133.104 84.6952L135.373 68.8116C136.129 63.5171 135.868 59.8516 134.588 57.8152C133.366 55.7789 130.777 54.7607 126.82 54.7607H119.839L113.729 98.3971ZM192.571 82.688L190.214 54.2371L179.044 82.688H192.571ZM195.102 111.488L193.705 95.7789H173.894L167.785 111.488H152.076L180.876 41.6698H202.258L211.509 111.488H195.102ZM234.147 111.488L242.089 54.7607H222.889L224.721 41.6698H280.576L278.743 54.7607H259.543L251.601 111.488H234.147ZM314.821 82.688L312.464 54.2371L301.294 82.688H314.821ZM317.352 111.488L315.955 95.7789H296.144L290.035 111.488H274.326L303.126 41.6698H324.508L333.759 111.488H317.352ZM364.251 112.361C358.608 112.361 353.749 111.692 349.677 110.353C345.604 108.957 342.026 107.27 338.942 105.292L344.702 92.288C347.902 94.3243 351.16 96.0116 354.477 97.3498C357.851 98.6298 361.808 99.2698 366.346 99.2698C369.779 99.2698 372.339 98.6298 374.026 97.3498C375.713 96.0698 376.702 94.3534 376.993 92.2007C377.4 89.5243 376.702 87.6916 374.899 86.7025C373.095 85.7134 369.924 84.6952 365.386 83.648C357.648 81.8443 352.382 79.3716 349.589 76.2298C346.797 73.088 345.837 68.5498 346.709 62.6152C347.524 56.5062 350.317 51.3571 355.088 47.168C359.917 42.9207 366.666 40.7971 375.335 40.7971C379.524 40.7971 383.655 41.5534 387.728 43.0662C391.8 44.5207 394.971 45.9752 397.24 47.4298L392.44 59.8225C389.182 58.0771 386.069 56.6807 383.102 55.6334C380.135 54.5862 376.935 54.0625 373.502 54.0625C370.651 54.0625 368.469 54.6152 366.957 55.7207C365.502 56.8262 364.629 58.4552 364.339 60.608C364.048 62.7607 364.629 64.4771 366.084 65.7571C367.539 67.0371 370.855 68.2298 376.033 69.3352C383.771 71.0225 389.008 73.4952 391.742 76.7534C394.535 80.0116 395.495 84.8116 394.622 91.1534C393.633 97.9025 390.462 103.139 385.109 106.863C379.815 110.528 372.862 112.361 364.251 112.361ZM425.376 112.361C419.733 112.361 414.874 111.692 410.802 110.353C406.729 108.957 403.151 107.27 400.067 105.292L405.827 92.288C409.027 94.3243 412.285 96.0116 415.602 97.3498C418.976 98.6298 422.933 99.2698 427.471 99.2698C430.904 99.2698 433.464 98.6298 435.151 97.3498C436.838 96.0698 437.827 94.3534 438.118 92.2007C438.525 89.5243 437.827 87.6916 436.024 86.7025C434.22 85.7134 431.049 84.6952 426.511 83.648C418.773 81.8443 413.507 79.3716 410.714 76.2298C407.922 73.088 406.962 68.5498 407.834 62.6152C408.649 56.5062 411.442 51.3571 416.213 47.168C421.042 42.9207 427.791 40.7971 436.46 40.7971C440.649 40.7971 444.78 41.5534 448.853 43.0662C452.925 44.5207 456.096 45.9752 458.365 47.4298L453.565 59.8225C450.307 58.0771 447.194 56.6807 444.227 55.6334C441.26 54.5862 438.06 54.0625 434.627 54.0625C431.776 54.0625 429.594 54.6152 428.082 55.7207C426.627 56.8262 425.754 58.4552 425.464 60.608C425.173 62.7607 425.754 64.4771 427.209 65.7571C428.664 67.0371 431.98 68.2298 437.158 69.3352C444.896 71.0225 450.133 73.4952 452.867 76.7534C455.66 80.0116 456.62 84.8116 455.747 91.1534C454.758 97.9025 451.587 103.139 446.234 106.863C440.94 110.528 433.987 112.361 425.376 112.361Z"/>
</mask>
<path d="M94.4422 111.488L104.217 41.6698H130.486C138.631 41.6698 144.682 43.9971 148.639 48.6516C152.653 53.248 154.137 59.3862 153.089 67.0662L150.297 86.4407C149.249 94.0625 146.079 100.143 140.784 104.681C135.548 109.219 128.828 111.488 120.624 111.488H94.4422ZM113.729 98.3971H120.711C124.668 98.3971 127.548 97.408 129.351 95.4298C131.155 93.4516 132.406 89.8734 133.104 84.6952L135.373 68.8116C136.129 63.5171 135.868 59.8516 134.588 57.8152C133.366 55.7789 130.777 54.7607 126.82 54.7607H119.839L113.729 98.3971ZM192.571 82.688L190.214 54.2371L179.044 82.688H192.571ZM195.102 111.488L193.705 95.7789H173.894L167.785 111.488H152.076L180.876 41.6698H202.258L211.509 111.488H195.102ZM234.147 111.488L242.089 54.7607H222.889L224.721 41.6698H280.576L278.743 54.7607H259.543L251.601 111.488H234.147ZM314.821 82.688L312.464 54.2371L301.294 82.688H314.821ZM317.352 111.488L315.955 95.7789H296.144L290.035 111.488H274.326L303.126 41.6698H324.508L333.759 111.488H317.352ZM364.251 112.361C358.608 112.361 353.749 111.692 349.677 110.353C345.604 108.957 342.026 107.27 338.942 105.292L344.702 92.288C347.902 94.3243 351.16 96.0116 354.477 97.3498C357.851 98.6298 361.808 99.2698 366.346 99.2698C369.779 99.2698 372.339 98.6298 374.026 97.3498C375.713 96.0698 376.702 94.3534 376.993 92.2007C377.4 89.5243 376.702 87.6916 374.899 86.7025C373.095 85.7134 369.924 84.6952 365.386 83.648C357.648 81.8443 352.382 79.3716 349.589 76.2298C346.797 73.088 345.837 68.5498 346.709 62.6152C347.524 56.5062 350.317 51.3571 355.088 47.168C359.917 42.9207 366.666 40.7971 375.335 40.7971C379.524 40.7971 383.655 41.5534 387.728 43.0662C391.8 44.5207 394.971 45.9752 397.24 47.4298L392.44 59.8225C389.182 58.0771 386.069 56.6807 383.102 55.6334C380.135 54.5862 376.935 54.0625 373.502 54.0625C370.651 54.0625 368.469 54.6152 366.957 55.7207C365.502 56.8262 364.629 58.4552 364.339 60.608C364.048 62.7607 364.629 64.4771 366.084 65.7571C367.539 67.0371 370.855 68.2298 376.033 69.3352C383.771 71.0225 389.008 73.4952 391.742 76.7534C394.535 80.0116 395.495 84.8116 394.622 91.1534C393.633 97.9025 390.462 103.139 385.109 106.863C379.815 110.528 372.862 112.361 364.251 112.361ZM425.376 112.361C419.733 112.361 414.874 111.692 410.802 110.353C406.729 108.957 403.151 107.27 400.067 105.292L405.827 92.288C409.027 94.3243 412.285 96.0116 415.602 97.3498C418.976 98.6298 422.933 99.2698 427.471 99.2698C430.904 99.2698 433.464 98.6298 435.151 97.3498C436.838 96.0698 437.827 94.3534 438.118 92.2007C438.525 89.5243 437.827 87.6916 436.024 86.7025C434.22 85.7134 431.049 84.6952 426.511 83.648C418.773 81.8443 413.507 79.3716 410.714 76.2298C407.922 73.088 406.962 68.5498 407.834 62.6152C408.649 56.5062 411.442 51.3571 416.213 47.168C421.042 42.9207 427.791 40.7971 436.46 40.7971C440.649 40.7971 444.78 41.5534 448.853 43.0662C452.925 44.5207 456.096 45.9752 458.365 47.4298L453.565 59.8225C450.307 58.0771 447.194 56.6807 444.227 55.6334C441.26 54.5862 438.06 54.0625 434.627 54.0625C431.776 54.0625 429.594 54.6152 428.082 55.7207C426.627 56.8262 425.754 58.4552 425.464 60.608C425.173 62.7607 425.754 64.4771 427.209 65.7571C428.664 67.0371 431.98 68.2298 437.158 69.3352C444.896 71.0225 450.133 73.4952 452.867 76.7534C455.66 80.0116 456.62 84.8116 455.747 91.1534C454.758 97.9025 451.587 103.139 446.234 106.863C440.94 110.528 433.987 112.361 425.376 112.361Z" fill="url(#paint0_linear_8_17)"/>
<path d="M94.4422 111.488L89.4905 110.795L88.6934 116.488H94.4422V111.488ZM104.217 41.6698V36.6698H99.868L99.265 40.9766L104.217 41.6698ZM148.639 48.6516L144.829 51.8899L144.851 51.9155L144.873 51.9408L148.639 48.6516ZM153.089 67.0662L158.038 67.7795L158.041 67.7606L158.044 67.7417L153.089 67.0662ZM150.297 86.4407L145.348 85.7274L145.346 85.7437L145.343 85.7601L150.297 86.4407ZM140.784 104.681L137.53 100.884L137.52 100.893L137.509 100.902L140.784 104.681ZM113.729 98.3971L108.778 97.7038L107.981 103.397H113.729V98.3971ZM129.351 95.4298L133.046 98.7986L133.046 98.7986L129.351 95.4298ZM133.104 84.6952L128.154 83.9881L128.151 84.0076L128.149 84.0271L133.104 84.6952ZM135.373 68.8116L140.323 69.5187L140.323 69.5187L135.373 68.8116ZM134.588 57.8152L130.3 60.3877L130.327 60.4322L130.354 60.4761L134.588 57.8152ZM119.839 54.7607V49.7607H115.49L114.887 54.0675L119.839 54.7607ZM99.3939 112.181L109.168 42.363L99.265 40.9766L89.4905 110.795L99.3939 112.181ZM104.217 46.6698H130.486V36.6698H104.217V46.6698ZM130.486 46.6698C137.683 46.6698 142.114 48.6956 144.829 51.8899L152.448 45.4134C147.251 39.2985 139.579 36.6698 130.486 36.6698V46.6698ZM144.873 51.9408C147.692 55.169 149.044 59.7265 148.135 66.3906L158.044 67.7417C159.229 59.0458 157.614 51.327 152.404 45.3625L144.873 51.9408ZM148.141 66.3528L145.348 85.7274L155.246 87.1541L158.038 67.7795L148.141 66.3528ZM145.343 85.7601C144.444 92.3053 141.798 97.2264 137.53 100.884L144.038 108.477C150.359 103.059 154.055 95.8197 155.25 87.1213L145.343 85.7601ZM137.509 100.902C133.344 104.512 127.858 106.488 120.624 106.488V116.488C129.798 116.488 137.752 113.925 144.059 108.459L137.509 100.902ZM120.624 106.488H94.4422V116.488H120.624V106.488ZM113.729 103.397H120.711V93.3971H113.729V103.397ZM120.711 103.397C125.396 103.397 129.919 102.229 133.046 98.7986L125.656 92.061C125.177 92.5872 123.939 93.3971 120.711 93.3971V103.397ZM133.046 98.7986C135.93 95.6354 137.334 90.7441 138.059 85.3634L128.149 84.0271C127.478 89.0027 126.38 91.2678 125.656 92.061L133.046 98.7986ZM138.054 85.4024L140.323 69.5187L130.423 68.1045L128.154 83.9881L138.054 85.4024ZM140.323 69.5187C140.731 66.6633 140.896 64.0433 140.731 61.7354C140.57 59.4787 140.068 57.1389 138.821 55.1544L130.354 60.4761C130.387 60.528 130.656 61.0391 130.757 62.4478C130.854 63.8054 130.772 65.6654 130.423 68.1045L140.323 69.5187ZM138.875 55.2428C136.266 50.8947 131.327 49.7607 126.82 49.7607V59.7607C128.416 59.7607 129.378 59.9724 129.9 60.1775C130.351 60.3549 130.35 60.4709 130.3 60.3877L138.875 55.2428ZM126.82 49.7607H119.839V59.7607H126.82V49.7607ZM114.887 54.0675L108.778 97.7038L118.681 99.0903L124.79 55.4539L114.887 54.0675ZM192.571 82.688V87.688H198.002L197.554 82.2753L192.571 82.688ZM190.214 54.2371L195.197 53.8244L185.56 52.4097L190.214 54.2371ZM179.044 82.688L174.389 80.8606L171.709 87.688H179.044V82.688ZM195.102 111.488L190.121 111.931L190.526 116.488H195.102V111.488ZM193.705 95.7789L198.686 95.3362L198.281 90.7789H193.705V95.7789ZM173.894 95.7789V90.7789H170.474L169.234 93.9667L173.894 95.7789ZM167.785 111.488V116.488H171.206L172.445 113.3L167.785 111.488ZM152.076 111.488L147.454 109.581L144.605 116.488H152.076V111.488ZM180.876 41.6698V36.6698H177.53L176.254 39.7631L180.876 41.6698ZM202.258 41.6698L207.215 41.013L206.639 36.6698H202.258V41.6698ZM211.509 111.488V116.488H217.215L216.466 110.831L211.509 111.488ZM197.554 82.2753L195.197 53.8244L185.232 54.6498L187.588 83.1007L197.554 82.2753ZM185.56 52.4097L174.389 80.8606L183.698 84.5154L194.869 56.0644L185.56 52.4097ZM179.044 87.688H192.571V77.688H179.044V87.688ZM200.082 111.045L198.686 95.3362L188.725 96.2216L190.121 111.931L200.082 111.045ZM193.705 90.7789H173.894V100.779H193.705V90.7789ZM169.234 93.9667L163.125 109.676L172.445 113.3L178.554 97.5911L169.234 93.9667ZM167.785 106.488H152.076V116.488H167.785V106.488ZM156.698 113.395L185.498 43.5764L176.254 39.7631L147.454 109.581L156.698 113.395ZM180.876 46.6698H202.258V36.6698H180.876V46.6698ZM197.301 42.3266L206.552 112.145L216.466 110.831L207.215 41.013L197.301 42.3266ZM211.509 106.488H195.102V116.488H211.509V106.488ZM234.147 111.488L229.195 110.795L228.398 116.488H234.147V111.488ZM242.089 54.7607L247.04 55.4539L247.837 49.7607H242.089V54.7607ZM222.889 54.7607L217.937 54.0675L217.14 59.7607H222.889V54.7607ZM224.721 41.6698V36.6698H220.373L219.77 40.9766L224.721 41.6698ZM280.576 41.6698L285.528 42.363L286.325 36.6698H280.576V41.6698ZM278.743 54.7607V59.7607H283.092L283.695 55.4539L278.743 54.7607ZM259.543 54.7607V49.7607H255.194L254.591 54.0675L259.543 54.7607ZM251.601 111.488V116.488H255.95L256.553 112.181L251.601 111.488ZM239.098 112.181L247.04 55.4539L237.137 54.0675L229.195 110.795L239.098 112.181ZM242.089 49.7607H222.889V59.7607H242.089V49.7607ZM227.84 55.4539L229.673 42.363L219.77 40.9766L217.937 54.0675L227.84 55.4539ZM224.721 46.6698H280.576V36.6698H224.721V46.6698ZM275.624 40.9766L273.791 54.0675L283.695 55.4539L285.528 42.363L275.624 40.9766ZM278.743 49.7607H259.543V59.7607H278.743V49.7607ZM254.591 54.0675L246.65 110.795L256.553 112.181L264.495 55.4539L254.591 54.0675ZM251.601 106.488H234.147V116.488H251.601V106.488ZM314.821 82.688V87.688H320.252L319.804 82.2753L314.821 82.688ZM312.464 54.2371L317.447 53.8244L307.81 52.4097L312.464 54.2371ZM301.294 82.688L296.639 80.8606L293.959 87.688H301.294V82.688ZM317.352 111.488L312.371 111.931L312.776 116.488H317.352V111.488ZM315.955 95.7789L320.936 95.3362L320.531 90.7789H315.955V95.7789ZM296.144 95.7789V90.7789H292.724L291.484 93.9667L296.144 95.7789ZM290.035 111.488V116.488H293.456L294.695 113.3L290.035 111.488ZM274.326 111.488L269.704 109.581L266.855 116.488H274.326V111.488ZM303.126 41.6698V36.6698H299.78L298.504 39.7631L303.126 41.6698ZM324.508 41.6698L329.465 41.013L328.889 36.6698H324.508V41.6698ZM333.759 111.488V116.488H339.465L338.716 110.831L333.759 111.488ZM319.804 82.2753L317.447 53.8244L307.482 54.6498L309.838 83.1007L319.804 82.2753ZM307.81 52.4097L296.639 80.8606L305.948 84.5154L317.119 56.0644L307.81 52.4097ZM301.294 87.688H314.821V77.688H301.294V87.688ZM322.332 111.045L320.936 95.3362L310.975 96.2216L312.371 111.931L322.332 111.045ZM315.955 90.7789H296.144V100.779H315.955V90.7789ZM291.484 93.9667L285.375 109.676L294.695 113.3L300.804 97.5911L291.484 93.9667ZM290.035 106.488H274.326V116.488H290.035V106.488ZM278.948 113.395L307.748 43.5764L298.504 39.7631L269.704 109.581L278.948 113.395ZM303.126 46.6698H324.508V36.6698H303.126V46.6698ZM319.551 42.3266L328.802 112.145L338.716 110.831L329.465 41.013L319.551 42.3266ZM333.759 106.488H317.352V116.488H333.759V106.488ZM349.677 110.353L348.055 115.083L348.085 115.094L348.116 115.104L349.677 110.353ZM338.942 105.292L334.371 103.267L332.635 107.186L336.242 109.5L338.942 105.292ZM344.702 92.288L347.387 88.0697L342.484 84.9499L340.131 90.263L344.702 92.288ZM354.477 97.3498L352.606 101.987L352.654 102.006L352.703 102.025L354.477 97.3498ZM374.026 97.3498L377.048 101.333L377.048 101.333L374.026 97.3498ZM376.993 92.2007L372.05 91.4485L372.044 91.4898L372.038 91.5311L376.993 92.2007ZM374.899 86.7025L372.494 91.0866L372.494 91.0866L374.899 86.7025ZM365.386 83.648L364.251 88.5175L364.262 88.5199L365.386 83.648ZM349.589 76.2298L353.327 72.908L353.327 72.908L349.589 76.2298ZM346.709 62.6152L351.656 63.3427L351.661 63.3094L351.666 63.2761L346.709 62.6152ZM355.088 47.168L358.387 50.9252L358.39 50.9224L355.088 47.168ZM387.728 43.0662L385.987 47.7533L386.016 47.7643L386.046 47.7749L387.728 43.0662ZM397.24 47.4298L401.903 49.2357L403.379 45.4255L399.939 43.2204L397.24 47.4298ZM392.44 59.8225L390.079 64.2299L395.061 66.8989L397.103 61.6284L392.44 59.8225ZM383.102 55.6334L381.438 60.3484L381.438 60.3484L383.102 55.6334ZM366.957 55.7207L364.007 51.6838L363.969 51.7115L363.931 51.7399L366.957 55.7207ZM364.339 60.608L359.384 59.9384L359.384 59.9384L364.339 60.608ZM366.084 65.7571L362.781 69.5106L362.781 69.5106L366.084 65.7571ZM376.033 69.3352L377.098 64.45L377.088 64.4477L377.077 64.4454L376.033 69.3352ZM391.742 76.7534L387.912 79.9678L387.929 79.9877L387.946 80.0074L391.742 76.7534ZM394.622 91.1534L399.569 91.8784L399.573 91.8568L399.576 91.8351L394.622 91.1534ZM385.109 106.863L387.956 110.973L387.965 110.967L385.109 106.863ZM364.251 107.361C358.98 107.361 354.676 106.733 351.237 105.603L348.116 115.104C352.823 116.65 358.235 117.361 364.251 117.361V107.361ZM351.298 105.624C347.54 104.335 344.336 102.811 341.642 101.083L336.242 109.5C339.716 111.728 343.668 113.579 348.055 115.083L351.298 105.624ZM343.514 107.317L349.274 94.313L340.131 90.263L334.371 103.267L343.514 107.317ZM342.018 96.5063C345.46 98.6968 348.99 100.527 352.606 101.987L356.348 92.713C353.331 91.4959 350.344 89.9518 347.387 88.0697L342.018 96.5063ZM352.703 102.025C356.769 103.567 361.351 104.27 366.346 104.27V94.2698C362.264 94.2698 358.933 93.6926 356.25 92.6748L352.703 102.025ZM366.346 104.27C370.245 104.27 374.099 103.571 377.048 101.333L371.004 93.3663C370.579 93.689 369.312 94.2698 366.346 94.2698V104.27ZM377.048 101.333C379.825 99.2267 381.484 96.3028 381.948 92.8703L372.038 91.5311C371.92 92.4041 371.602 92.9128 371.004 93.3663L377.048 101.333ZM381.936 92.9529C382.223 91.0709 382.199 89.011 381.447 87.0389C380.654 84.9551 379.191 83.3538 377.303 82.3185L372.494 91.0866C372.487 91.0827 372.404 91.0341 372.303 90.9196C372.199 90.8023 372.134 90.6821 372.102 90.5989C372.074 90.5249 372.093 90.5348 372.102 90.6735C372.111 90.8162 372.108 91.0672 372.05 91.4485L381.936 92.9529ZM377.303 82.3185C374.842 80.9692 371.077 79.8299 366.51 78.776L364.262 88.5199C368.771 89.5606 371.347 90.4576 372.494 91.0866L377.303 82.3185ZM366.521 78.7785C359.024 77.0311 355.05 74.8465 353.327 72.908L345.852 79.5516C349.715 83.8967 356.271 86.6576 364.251 88.5175L366.521 78.7785ZM353.327 72.908C351.88 71.2808 350.903 68.4623 351.656 63.3427L341.763 61.8878C340.77 68.6373 341.713 74.8951 345.852 79.5516L353.327 72.908ZM351.666 63.2761C352.315 58.4046 354.494 54.3428 358.387 50.9252L351.789 43.4108C346.139 48.3713 342.733 54.6078 341.753 61.9544L351.666 63.2761ZM358.39 50.9224C362.03 47.7211 367.454 45.7971 375.335 45.7971V35.7971C365.877 35.7971 357.804 38.1203 351.786 43.4135L358.39 50.9224ZM375.335 45.7971C378.908 45.7971 382.45 46.4397 385.987 47.7533L389.469 38.379C384.86 36.6672 380.14 35.7971 375.335 35.7971V45.7971ZM386.046 47.7749C389.949 49.1686 392.724 50.4737 394.542 51.6392L399.939 43.2204C397.219 41.4768 393.652 39.8728 389.409 38.3575L386.046 47.7749ZM392.578 45.6239L387.778 58.0166L397.103 61.6284L401.903 49.2357L392.578 45.6239ZM394.801 55.4151C391.357 53.5697 388.011 52.0635 384.766 50.9185L381.438 60.3484C384.128 61.2979 387.008 62.5844 390.079 64.2299L394.801 55.4151ZM384.766 50.9185C381.218 49.6661 377.45 49.0625 373.502 49.0625V59.0625C376.42 59.0625 379.052 59.5062 381.438 60.3484L384.766 50.9185ZM373.502 49.0625C370.112 49.0625 366.718 49.7025 364.007 51.6838L369.907 59.7577C370.221 59.528 371.191 59.0625 373.502 59.0625V49.0625ZM363.931 51.7399C361.222 53.7986 359.816 56.7366 359.384 59.9384L369.294 61.2776C369.443 60.1739 369.782 59.8537 369.982 59.7015L363.931 51.7399ZM359.384 59.9384C358.9 63.5133 359.902 66.977 362.781 69.5106L369.387 62.0035C369.318 61.9423 369.294 61.9079 369.292 61.9048C369.291 61.9033 369.293 61.9069 369.292 61.9046C369.291 61.9004 369.277 61.8598 369.27 61.7658C369.263 61.669 369.262 61.5102 369.294 61.2776L359.384 59.9384ZM362.781 69.5106C364.221 70.778 366.124 71.6526 367.97 72.3166C369.917 73.0167 372.278 73.6462 374.989 74.2251L377.077 64.4454C374.61 63.9189 372.724 63.3993 371.354 62.9066C370.674 62.6618 370.175 62.4429 369.825 62.2615C369.461 62.0732 369.354 61.9743 369.387 62.0035L362.781 69.5106ZM374.968 74.2205C382.435 75.8485 386.283 78.026 387.912 79.9678L395.572 73.5391C391.733 68.9645 385.108 66.1965 377.098 64.45L374.968 74.2205ZM387.946 80.0074C389.429 81.7371 390.443 84.8435 389.669 90.4718L399.576 91.8351C400.546 84.7797 399.641 78.2861 395.538 73.4995L387.946 80.0074ZM389.675 90.4284C388.876 95.8813 386.415 99.8635 382.254 102.758L387.965 110.967C394.509 106.414 398.39 99.9237 399.569 91.8784L389.675 90.4284ZM382.263 102.752C378.045 105.672 372.182 107.361 364.251 107.361V117.361C373.542 117.361 381.585 115.384 387.956 110.973L382.263 102.752ZM410.802 110.353L409.18 115.083L409.21 115.094L409.241 115.104L410.802 110.353ZM400.067 105.292L395.496 103.267L393.76 107.186L397.367 109.5L400.067 105.292ZM405.827 92.288L408.512 88.0697L403.609 84.9499L401.256 90.263L405.827 92.288ZM415.602 97.3498L413.731 101.987L413.779 102.006L413.828 102.025L415.602 97.3498ZM435.151 97.3498L438.173 101.333L438.173 101.333L435.151 97.3498ZM438.118 92.2007L433.175 91.4485L433.169 91.4898L433.163 91.5311L438.118 92.2007ZM436.024 86.7025L433.619 91.0866L433.619 91.0866L436.024 86.7025ZM426.511 83.648L425.376 88.5175L425.387 88.5199L426.511 83.648ZM410.714 76.2298L414.452 72.908L414.452 72.908L410.714 76.2298ZM407.834 62.6152L412.781 63.3427L412.786 63.3094L412.791 63.2761L407.834 62.6152ZM416.213 47.168L419.512 50.9252L419.515 50.9224L416.213 47.168ZM448.853 43.0662L447.112 47.7533L447.141 47.7643L447.171 47.7749L448.853 43.0662ZM458.365 47.4298L463.028 49.2357L464.504 45.4255L461.064 43.2204L458.365 47.4298ZM453.565 59.8225L451.204 64.2299L456.186 66.8989L458.228 61.6284L453.565 59.8225ZM444.227 55.6334L442.563 60.3484L442.563 60.3484L444.227 55.6334ZM428.082 55.7207L425.132 51.6838L425.094 51.7115L425.056 51.7399L428.082 55.7207ZM425.464 60.608L420.509 59.9384L420.509 59.9384L425.464 60.608ZM427.209 65.7571L423.906 69.5106L423.906 69.5106L427.209 65.7571ZM437.158 69.3352L438.223 64.45L438.213 64.4477L438.202 64.4454L437.158 69.3352ZM452.867 76.7534L449.037 79.9678L449.054 79.9877L449.071 80.0074L452.867 76.7534ZM455.747 91.1534L460.694 91.8784L460.698 91.8568L460.701 91.8351L455.747 91.1534ZM446.234 106.863L449.081 110.973L449.09 110.967L446.234 106.863ZM425.376 107.361C420.105 107.361 415.801 106.733 412.362 105.603L409.241 115.104C413.948 116.65 419.36 117.361 425.376 117.361V107.361ZM412.423 105.624C408.665 104.335 405.461 102.811 402.767 101.083L397.367 109.5C400.841 111.728 404.793 113.579 409.18 115.083L412.423 105.624ZM404.639 107.317L410.399 94.313L401.256 90.263L395.496 103.267L404.639 107.317ZM403.143 96.5063C406.585 98.6968 410.115 100.527 413.731 101.987L417.473 92.713C414.456 91.4959 411.469 89.9518 408.512 88.0697L403.143 96.5063ZM413.828 102.025C417.894 103.567 422.476 104.27 427.471 104.27V94.2698C423.389 94.2698 420.058 93.6926 417.375 92.6748L413.828 102.025ZM427.471 104.27C431.37 104.27 435.224 103.571 438.173 101.333L432.129 93.3663C431.704 93.689 430.437 94.2698 427.471 94.2698V104.27ZM438.173 101.333C440.95 99.2267 442.609 96.3028 443.073 92.8703L433.163 91.5311C433.045 92.4041 432.727 92.9128 432.129 93.3663L438.173 101.333ZM443.061 92.9529C443.348 91.0709 443.324 89.011 442.572 87.0389C441.779 84.9551 440.316 83.3538 438.428 82.3185L433.619 91.0866C433.612 91.0827 433.529 91.0341 433.428 90.9196C433.324 90.8023 433.259 90.6821 433.227 90.5989C433.199 90.5249 433.218 90.5348 433.227 90.6735C433.236 90.8162 433.233 91.0672 433.175 91.4485L443.061 92.9529ZM438.428 82.3185C435.967 80.9692 432.202 79.8299 427.635 78.776L425.387 88.5199C429.896 89.5606 432.472 90.4576 433.619 91.0866L438.428 82.3185ZM427.646 78.7785C420.149 77.0311 416.175 74.8465 414.452 72.908L406.977 79.5516C410.84 83.8967 417.396 86.6576 425.376 88.5175L427.646 78.7785ZM414.452 72.908C413.005 71.2808 412.028 68.4623 412.781 63.3427L402.888 61.8878C401.895 68.6373 402.838 74.8951 406.977 79.5516L414.452 72.908ZM412.791 63.2761C413.44 58.4046 415.619 54.3428 419.512 50.9252L412.914 43.4108C407.264 48.3713 403.858 54.6078 402.878 61.9544L412.791 63.2761ZM419.515 50.9224C423.155 47.7211 428.579 45.7971 436.46 45.7971V35.7971C427.002 35.7971 418.929 38.1203 412.911 43.4135L419.515 50.9224ZM436.46 45.7971C440.033 45.7971 443.575 46.4397 447.112 47.7533L450.594 38.379C445.985 36.6672 441.265 35.7971 436.46 35.7971V45.7971ZM447.171 47.7749C451.074 49.1686 453.849 50.4737 455.667 51.6392L461.064 43.2204C458.344 41.4768 454.777 39.8728 450.534 38.3575L447.171 47.7749ZM453.703 45.6239L448.903 58.0166L458.228 61.6284L463.028 49.2357L453.703 45.6239ZM455.926 55.4151C452.482 53.5697 449.136 52.0635 445.891 50.9185L442.563 60.3484C445.253 61.2979 448.133 62.5844 451.204 64.2299L455.926 55.4151ZM445.891 50.9185C442.343 49.6661 438.575 49.0625 434.627 49.0625V59.0625C437.545 59.0625 440.177 59.5062 442.563 60.3484L445.891 50.9185ZM434.627 49.0625C431.237 49.0625 427.843 49.7025 425.132 51.6838L431.032 59.7577C431.346 59.528 432.316 59.0625 434.627 59.0625V49.0625ZM425.056 51.7399C422.347 53.7986 420.941 56.7366 420.509 59.9384L430.419 61.2776C430.568 60.1739 430.907 59.8537 431.107 59.7015L425.056 51.7399ZM420.509 59.9384C420.025 63.5133 421.027 66.977 423.906 69.5106L430.512 62.0035C430.443 61.9423 430.419 61.9079 430.417 61.9048C430.416 61.9033 430.418 61.9069 430.417 61.9046C430.416 61.9004 430.402 61.8598 430.395 61.7658C430.388 61.669 430.387 61.5102 430.419 61.2776L420.509 59.9384ZM423.906 69.5106C425.346 70.778 427.249 71.6526 429.095 72.3166C431.042 73.0167 433.403 73.6462 436.114 74.2251L438.202 64.4454C435.735 63.9189 433.849 63.3993 432.479 62.9066C431.799 62.6618 431.3 62.4429 430.95 62.2615C430.586 62.0732 430.479 61.9743 430.512 62.0035L423.906 69.5106ZM436.093 74.2205C443.56 75.8485 447.408 78.026 449.037 79.9678L456.697 73.5391C452.858 68.9645 446.233 66.1965 438.223 64.45L436.093 74.2205ZM449.071 80.0074C450.554 81.7371 451.568 84.8435 450.794 90.4718L460.701 91.8351C461.671 84.7797 460.766 78.2861 456.663 73.4995L449.071 80.0074ZM450.8 90.4284C450.001 95.8813 447.54 99.8635 443.379 102.758L449.09 110.967C455.634 106.414 459.515 99.9237 460.694 91.8784L450.8 90.4284ZM443.388 102.752C439.17 105.672 433.307 107.361 425.376 107.361V117.361C434.667 117.361 442.71 115.384 449.081 110.973L443.388 102.752Z" fill="black" mask="url(#path-3-outside-1_8_17)"/>
<mask id="path-5-inside-2_8_17" fill="white">
<path d="M94.5893 112.089L104.059 42.2287L130.328 42.1141C138.473 42.0786 144.534 44.3794 148.511 49.0167C152.546 53.5955 154.056 59.7271 153.042 67.4116L150.334 86.7982C149.32 94.4245 146.176 100.518 140.901 105.079C135.684 109.64 128.974 111.939 120.771 111.975L94.5893 112.089ZM113.819 98.914L120.801 98.8835C124.757 98.8662 127.633 97.8646 129.428 95.8786C131.223 93.8925 132.458 90.3089 133.134 85.1277L135.334 69.2343C136.067 63.9366 135.789 60.2723 134.5 58.2415C133.27 56.2105 130.676 55.2036 126.72 55.2209L119.738 55.2514L113.819 98.914ZM192.591 82.861L190.111 54.4206L179.064 82.92L192.591 82.861ZM195.248 111.65L193.783 95.9468L173.972 96.0333L167.932 111.769L152.223 111.837L180.718 41.8942L202.1 41.8009L211.655 111.578L195.248 111.65ZM234.293 111.479L241.987 54.7179L222.787 54.8017L224.563 41.7029L280.417 41.4592L278.641 54.558L259.441 54.6418L251.747 111.403L234.293 111.479ZM314.84 82.3276L312.36 53.8872L301.313 82.3866L314.84 82.3276ZM317.497 111.116L316.032 95.4134L296.221 95.4999L290.181 111.235L274.472 111.304L302.967 41.3608L324.348 41.2675L333.904 111.045L317.497 111.116ZM364.4 111.784C358.756 111.809 353.895 111.161 349.816 109.841C345.738 108.462 342.152 106.79 339.06 104.826L344.763 91.7971C347.972 93.8195 351.238 95.4925 354.56 96.8162C357.94 98.0815 361.899 98.7042 366.437 98.6844C369.87 98.6695 372.427 98.0183 374.109 96.7309C375.79 95.4436 376.772 93.7229 377.053 91.569C377.449 88.8908 376.743 87.0612 374.935 86.08C373.127 85.0988 369.952 84.0944 365.409 83.067C357.663 81.2971 352.387 78.8474 349.58 75.7178C346.774 72.5882 345.794 68.0542 346.641 62.1159C347.429 56.0033 350.199 50.8421 354.952 46.6322C359.762 42.3639 366.502 40.2109 375.171 40.173C379.36 40.1548 383.494 40.8931 387.573 42.388C391.652 43.8248 394.83 45.2655 397.105 46.7101L392.359 59.1237C389.093 57.3925 385.975 56.0097 383.003 54.9754C380.031 53.9411 376.829 53.4314 373.396 53.4464C370.545 53.4588 368.366 54.021 366.858 55.1331C365.408 56.2449 364.543 57.8778 364.261 60.0317C363.98 62.1857 364.569 63.8995 366.029 65.1732C367.489 66.4468 370.811 67.6251 375.994 68.7079C383.739 70.3614 388.986 72.8113 391.735 76.0575C394.542 79.3034 395.523 84.0992 394.678 90.4448C393.718 97.1981 390.57 102.448 385.234 106.195C379.955 109.884 373.01 111.747 364.4 111.784ZM425.524 111.518C419.88 111.542 415.019 110.894 410.941 109.574C406.862 108.195 403.277 106.524 400.184 104.559L405.888 91.5304C409.096 93.5528 412.362 95.2258 415.684 96.5495C419.064 97.8148 423.023 98.4375 427.561 98.4177C430.994 98.4027 433.551 97.7516 435.233 96.4642C436.915 95.1769 437.896 93.4562 438.178 91.3022C438.573 88.6241 437.867 86.7945 436.059 85.8133C434.251 84.832 431.076 83.8277 426.533 82.8002C418.787 81.0304 413.511 78.5807 410.705 75.4511C407.898 72.3215 406.919 67.7875 407.765 61.8492C408.553 55.7366 411.323 50.5754 416.076 46.3655C420.887 42.0972 427.626 39.9442 436.295 39.9063C440.484 39.8881 444.619 40.6264 448.698 42.1213C452.777 43.5581 455.954 44.9988 458.23 46.4434L453.484 58.857C450.218 57.1258 447.099 55.743 444.127 54.7087C441.155 53.6743 437.953 53.1647 434.521 53.1797C431.67 53.1921 429.49 53.7543 427.982 54.8664C426.533 55.9782 425.667 57.6111 425.386 59.765C425.104 61.919 425.693 63.6328 427.153 64.9065C428.614 66.1801 431.935 67.3583 437.118 68.4412C444.863 70.0947 450.111 72.5445 452.859 75.7908C455.666 79.0367 456.647 83.8325 455.802 90.1781C454.843 96.9314 451.694 102.182 446.358 105.929C441.08 109.617 434.135 111.48 425.524 111.518Z"/>
</mask>
<path d="M94.5893 112.089L104.059 42.2287L130.328 42.1141C138.473 42.0786 144.534 44.3794 148.511 49.0167C152.546 53.5955 154.056 59.7271 153.042 67.4116L150.334 86.7982C149.32 94.4245 146.176 100.518 140.901 105.079C135.684 109.64 128.974 111.939 120.771 111.975L94.5893 112.089ZM113.819 98.914L120.801 98.8835C124.757 98.8662 127.633 97.8646 129.428 95.8786C131.223 93.8925 132.458 90.3089 133.134 85.1277L135.334 69.2343C136.067 63.9366 135.789 60.2723 134.5 58.2415C133.27 56.2105 130.676 55.2036 126.72 55.2209L119.738 55.2514L113.819 98.914ZM192.591 82.861L190.111 54.4206L179.064 82.92L192.591 82.861ZM195.248 111.65L193.783 95.9468L173.972 96.0333L167.932 111.769L152.223 111.837L180.718 41.8942L202.1 41.8009L211.655 111.578L195.248 111.65ZM234.293 111.479L241.987 54.7179L222.787 54.8017L224.563 41.7029L280.417 41.4592L278.641 54.558L259.441 54.6418L251.747 111.403L234.293 111.479ZM314.84 82.3276L312.36 53.8872L301.313 82.3866L314.84 82.3276ZM317.497 111.116L316.032 95.4134L296.221 95.4999L290.181 111.235L274.472 111.304L302.967 41.3608L324.348 41.2675L333.904 111.045L317.497 111.116ZM364.4 111.784C358.756 111.809 353.895 111.161 349.816 109.841C345.738 108.462 342.152 106.79 339.06 104.826L344.763 91.7971C347.972 93.8195 351.238 95.4925 354.56 96.8162C357.94 98.0815 361.899 98.7042 366.437 98.6844C369.87 98.6695 372.427 98.0183 374.109 96.7309C375.79 95.4436 376.772 93.7229 377.053 91.569C377.449 88.8908 376.743 87.0612 374.935 86.08C373.127 85.0988 369.952 84.0944 365.409 83.067C357.663 81.2971 352.387 78.8474 349.58 75.7178C346.774 72.5882 345.794 68.0542 346.641 62.1159C347.429 56.0033 350.199 50.8421 354.952 46.6322C359.762 42.3639 366.502 40.2109 375.171 40.173C379.36 40.1548 383.494 40.8931 387.573 42.388C391.652 43.8248 394.83 45.2655 397.105 46.7101L392.359 59.1237C389.093 57.3925 385.975 56.0097 383.003 54.9754C380.031 53.9411 376.829 53.4314 373.396 53.4464C370.545 53.4588 368.366 54.021 366.858 55.1331C365.408 56.2449 364.543 57.8778 364.261 60.0317C363.98 62.1857 364.569 63.8995 366.029 65.1732C367.489 66.4468 370.811 67.6251 375.994 68.7079C383.739 70.3614 388.986 72.8113 391.735 76.0575C394.542 79.3034 395.523 84.0992 394.678 90.4448C393.718 97.1981 390.57 102.448 385.234 106.195C379.955 109.884 373.01 111.747 364.4 111.784ZM425.524 111.518C419.88 111.542 415.019 110.894 410.941 109.574C406.862 108.195 403.277 106.524 400.184 104.559L405.888 91.5304C409.096 93.5528 412.362 95.2258 415.684 96.5495C419.064 97.8148 423.023 98.4375 427.561 98.4177C430.994 98.4027 433.551 97.7516 435.233 96.4642C436.915 95.1769 437.896 93.4562 438.178 91.3022C438.573 88.6241 437.867 86.7945 436.059 85.8133C434.251 84.832 431.076 83.8277 426.533 82.8002C418.787 81.0304 413.511 78.5807 410.705 75.4511C407.898 72.3215 406.919 67.7875 407.765 61.8492C408.553 55.7366 411.323 50.5754 416.076 46.3655C420.887 42.0972 427.626 39.9442 436.295 39.9063C440.484 39.8881 444.619 40.6264 448.698 42.1213C452.777 43.5581 455.954 44.9988 458.23 46.4434L453.484 58.857C450.218 57.1258 447.099 55.743 444.127 54.7087C441.155 53.6743 437.953 53.1647 434.521 53.1797C431.67 53.1921 429.49 53.7543 427.982 54.8664C426.533 55.9782 425.667 57.6111 425.386 59.765C425.104 61.919 425.693 63.6328 427.153 64.9065C428.614 66.1801 431.935 67.3583 437.118 68.4412C444.863 70.0947 450.111 72.5445 452.859 75.7908C455.666 79.0367 456.647 83.8325 455.802 90.1781C454.843 96.9314 451.694 102.182 446.358 105.929C441.08 109.617 434.135 111.48 425.524 111.518Z" fill="black"/>
<path d="M94.5893 112.089L93.5984 111.955L93.4439 113.094L94.5937 113.089L94.5893 112.089ZM104.059 42.2287L104.055 41.2287L103.185 41.2325L103.068 42.0944L104.059 42.2287ZM148.511 49.0167L147.752 49.6677L147.761 49.6778L148.511 49.0167ZM153.042 67.4116L154.033 67.55L154.034 67.5424L153.042 67.4116ZM150.334 86.7982L149.344 86.6598L149.343 86.6664L150.334 86.7982ZM140.901 105.079L140.247 104.323L140.243 104.327L140.901 105.079ZM113.819 98.914L112.828 98.7796L112.674 99.919L113.824 99.9139L113.819 98.914ZM129.428 95.8786L130.17 96.5491L130.17 96.5491L129.428 95.8786ZM133.134 85.1277L132.143 84.9906L132.142 84.9984L133.134 85.1277ZM135.334 69.2343L136.324 69.3714L136.324 69.3714L135.334 69.2343ZM134.5 58.2415L133.645 58.7597L133.65 58.7686L133.656 58.7774L134.5 58.2415ZM119.738 55.2514L119.734 54.2514L118.864 54.2552L118.747 55.117L119.738 55.2514ZM95.5802 112.223L105.05 42.3631L103.068 42.0944L93.5984 111.955L95.5802 112.223ZM104.063 43.2287L130.332 43.1141L130.324 41.1141L104.055 41.2287L104.063 43.2287ZM130.332 43.1141C138.288 43.0794 144.025 45.3214 147.752 49.6676L149.27 48.3657C145.044 43.4375 138.659 41.0778 130.324 41.1141L130.332 43.1141ZM147.761 49.6778C151.555 53.984 153.038 59.7996 152.051 67.2808L154.034 67.5424C155.074 59.6546 153.536 53.2069 149.261 48.3555L147.761 49.6778ZM152.052 67.2733L149.344 86.6598L151.324 86.9365L154.033 67.55L152.052 67.2733ZM149.343 86.6664C148.357 94.0772 145.317 99.9388 140.247 104.323L141.555 105.836C147.034 101.098 150.283 94.7717 151.325 86.93L149.343 86.6664ZM140.243 104.327C135.24 108.701 128.776 110.94 120.767 110.975L120.775 112.975C129.173 112.938 136.129 110.58 141.559 105.832L140.243 104.327ZM120.767 110.975L94.5849 111.089L94.5937 113.089L120.775 112.975L120.767 110.975ZM113.824 99.9139L120.805 99.8835L120.797 97.8835L113.815 97.914L113.824 99.9139ZM120.805 99.8835C124.907 99.8656 128.111 98.8267 130.17 96.5491L128.686 95.208C127.155 96.9025 124.607 97.8669 120.797 97.8835L120.805 99.8835ZM130.17 96.5491C132.18 94.3251 133.445 90.4788 134.125 85.257L132.142 84.9984C131.472 90.1391 130.266 93.4599 128.686 95.208L130.17 96.5491ZM134.124 85.2648L136.324 69.3714L134.343 69.0972L132.143 84.9906L134.124 85.2648ZM136.324 69.3714C136.697 66.6809 136.818 64.3643 136.672 62.4372C136.527 60.5203 136.111 58.9138 135.344 57.7057L133.656 58.7774C134.178 59.6 134.546 60.841 134.678 62.5884C134.81 64.3255 134.704 66.49 134.343 69.0972L136.324 69.3714ZM135.355 57.7233C133.845 55.2311 130.782 54.2032 126.715 54.2209L126.724 56.2209C130.57 56.2041 132.694 57.1899 133.645 58.7597L135.355 57.7233ZM126.715 54.2209L119.734 54.2514L119.742 56.2513L126.724 56.2209L126.715 54.2209ZM118.747 55.117L112.828 98.7796L114.81 99.0483L120.729 55.3857L118.747 55.117ZM192.591 82.861L192.596 83.861L193.682 83.8563L193.588 82.7741L192.591 82.861ZM190.111 54.4206L191.107 54.3338L189.178 54.0592L190.111 54.4206ZM179.064 82.92L178.132 82.5586L177.602 83.9264L179.069 83.92L179.064 82.92ZM195.248 111.65L194.252 111.743L194.337 112.654L195.252 112.65L195.248 111.65ZM193.783 95.9468L194.779 95.854L194.694 94.9429L193.779 94.9469L193.783 95.9468ZM173.972 96.0333L173.968 95.0333L173.284 95.0363L173.039 95.6749L173.972 96.0333ZM167.932 111.769L167.936 112.769L168.62 112.766L168.865 112.127L167.932 111.769ZM152.223 111.837L151.297 111.46L150.733 112.844L152.227 112.837L152.223 111.837ZM180.718 41.8942L180.714 40.8943L180.044 40.8972L179.792 41.5169L180.718 41.8942ZM202.1 41.8009L203.09 41.6653L202.971 40.7971L202.095 40.801L202.1 41.8009ZM211.655 111.578L211.659 112.578L212.801 112.573L212.646 111.442L211.655 111.578ZM193.588 82.7741L191.107 54.3338L189.115 54.5075L191.595 82.9479L193.588 82.7741ZM189.178 54.0592L178.132 82.5586L179.997 83.2814L191.043 54.7821L189.178 54.0592ZM179.069 83.92L192.596 83.861L192.587 81.861L179.06 81.92L179.069 83.92ZM196.244 111.557L194.779 95.854L192.787 96.0397L194.252 111.743L196.244 111.557ZM193.779 94.9469L173.968 95.0333L173.977 97.0333L193.787 96.9468L193.779 94.9469ZM173.039 95.6749L166.998 111.411L168.865 112.127L174.906 96.3917L173.039 95.6749ZM167.927 110.769L152.218 110.837L152.227 112.837L167.936 112.769L167.927 110.769ZM153.149 112.215L181.644 42.2715L179.792 41.5169L151.297 111.46L153.149 112.215ZM180.722 42.8942L202.104 42.8009L202.095 40.801L180.714 40.8943L180.722 42.8942ZM201.109 41.9366L210.664 111.714L212.646 111.442L203.09 41.6653L201.109 41.9366ZM211.651 110.578L195.244 110.65L195.252 112.65L211.659 112.578L211.651 110.578ZM234.293 111.479L233.302 111.345L233.147 112.484L234.297 112.479L234.293 111.479ZM241.987 54.7179L242.978 54.8523L243.132 53.7129L241.982 53.7179L241.987 54.7179ZM222.787 54.8017L221.796 54.6674L221.642 55.8067L222.791 55.8017L222.787 54.8017ZM224.563 41.7029L224.558 40.7029L223.688 40.7067L223.572 41.5686L224.563 41.7029ZM280.417 41.4592L281.407 41.5935L281.562 40.4542L280.412 40.4592L280.417 41.4592ZM278.641 54.558L278.645 55.558L279.515 55.5542L279.632 54.6923L278.641 54.558ZM259.441 54.6418L259.437 53.6418L258.567 53.6456L258.45 54.5075L259.441 54.6418ZM251.747 111.403L251.751 112.403L252.621 112.399L252.738 111.537L251.747 111.403ZM235.283 111.614L242.978 54.8523L240.996 54.5836L233.302 111.345L235.283 111.614ZM241.982 53.7179L222.783 53.8017L222.791 55.8017L241.991 55.7179L241.982 53.7179ZM223.778 54.936L225.553 41.8373L223.572 41.5686L221.796 54.6674L223.778 54.936ZM224.567 42.7029L280.421 42.4592L280.412 40.4592L224.558 40.7029L224.567 42.7029ZM279.426 41.3249L277.65 54.4237L279.632 54.6923L281.407 41.5935L279.426 41.3249ZM278.637 53.558L259.437 53.6418L259.445 55.6418L278.645 55.558L278.637 53.558ZM258.45 54.5075L250.756 111.269L252.738 111.537L260.432 54.7761L258.45 54.5075ZM251.743 110.403L234.288 110.479L234.297 112.479L251.751 112.403L251.743 110.403ZM314.84 82.3276L314.845 83.3276L315.931 83.3228L315.836 82.2407L314.84 82.3276ZM312.36 53.8872L313.356 53.8003L311.427 53.5258L312.36 53.8872ZM301.313 82.3866L300.381 82.0252L299.85 83.393L301.317 83.3866L301.313 82.3866ZM317.497 111.116L316.501 111.209L316.586 112.12L317.501 112.116L317.497 111.116ZM316.032 95.4134L317.028 95.3205L316.943 94.4094L316.027 94.4134L316.032 95.4134ZM296.221 95.4999L296.217 94.4999L295.533 94.5029L295.288 95.1415L296.221 95.4999ZM290.181 111.235L290.185 112.235L290.869 112.232L291.114 111.594L290.181 111.235ZM274.472 111.304L273.546 110.927L272.982 112.311L274.476 112.304L274.472 111.304ZM302.967 41.3608L302.962 40.3608L302.293 40.3638L302.041 40.9835L302.967 41.3608ZM324.348 41.2675L325.339 41.1319L325.22 40.2637L324.344 40.2675L324.348 41.2675ZM333.904 111.045L333.908 112.045L335.049 112.04L334.895 110.909L333.904 111.045ZM315.836 82.2407L313.356 53.8003L311.363 53.9741L313.844 82.4145L315.836 82.2407ZM311.427 53.5258L300.381 82.0252L302.245 82.748L313.292 54.2486L311.427 53.5258ZM301.317 83.3866L314.845 83.3276L314.836 81.3276L301.309 81.3866L301.317 83.3866ZM318.492 111.023L317.028 95.3205L315.036 95.5063L316.501 111.209L318.492 111.023ZM316.027 94.4134L296.217 94.4999L296.225 96.4999L316.036 96.4134L316.027 94.4134ZM295.288 95.1415L289.247 110.877L291.114 111.594L297.155 95.8582L295.288 95.1415ZM290.176 110.235L274.467 110.304L274.476 112.304L290.185 112.235L290.176 110.235ZM275.398 111.681L303.893 41.7381L302.041 40.9835L273.546 110.927L275.398 111.681ZM302.971 42.3608L324.353 42.2675L324.344 40.2675L302.962 40.3608L302.971 42.3608ZM323.358 41.4032L332.913 111.18L334.895 110.909L325.339 41.1319L323.358 41.4032ZM333.899 110.045L317.492 110.116L317.501 112.116L333.908 112.045L333.899 110.045ZM349.816 109.841L349.496 110.788L349.508 110.792L349.816 109.841ZM339.06 104.826L338.144 104.425L337.8 105.21L338.524 105.67L339.06 104.826ZM344.763 91.7971L345.296 90.9511L344.313 90.3315L343.847 91.3961L344.763 91.7971ZM354.56 96.8162L354.19 97.7452L354.199 97.7491L354.209 97.7528L354.56 96.8162ZM374.109 96.7309L374.716 97.525L374.716 97.525L374.109 96.7309ZM377.053 91.569L376.064 91.4228L376.063 91.4311L376.062 91.4394L377.053 91.569ZM374.935 86.08L374.458 86.9589L374.458 86.9589L374.935 86.08ZM365.409 83.067L365.186 84.0418L365.188 84.0423L365.409 83.067ZM349.58 75.7178L350.325 75.0501L350.325 75.0501L349.58 75.7178ZM346.641 62.1159L347.631 62.2571L347.633 62.2438L346.641 62.1159ZM354.952 46.6322L355.615 47.3808L355.615 47.3802L354.952 46.6322ZM387.573 42.388L387.229 43.3271L387.241 43.3312L387.573 42.388ZM397.105 46.7101L398.039 47.0672L398.331 46.3039L397.641 45.8659L397.105 46.7101ZM392.359 59.1237L391.891 60.0072L392.89 60.5367L393.293 59.4808L392.359 59.1237ZM383.003 54.9754L382.674 55.9198L382.674 55.9198L383.003 54.9754ZM366.858 55.1331L366.264 54.3283L366.257 54.3339L366.249 54.3396L366.858 55.1331ZM364.261 60.0317L363.27 59.9021L363.27 59.9021L364.261 60.0317ZM366.029 65.1732L365.372 65.9268L365.372 65.9268L366.029 65.1732ZM375.994 68.7079L376.202 67.7299L376.198 67.729L375.994 68.7079ZM391.735 76.0575L390.972 76.7037L390.979 76.7116L391.735 76.0575ZM394.678 90.4448L395.668 90.5855L395.669 90.5768L394.678 90.4448ZM385.234 106.195L385.806 107.015L385.808 107.014L385.234 106.195ZM364.395 110.784C358.826 110.809 354.076 110.169 350.124 108.889L349.508 110.792C353.714 112.154 358.686 112.809 364.404 112.784L364.395 110.784ZM350.137 108.893C346.121 107.536 342.61 105.897 339.596 103.982L338.524 105.67C341.694 107.684 345.354 109.388 349.496 110.788L350.137 108.893ZM339.976 105.227L345.679 92.1981L343.847 91.3961L338.144 104.425L339.976 105.227ZM344.23 92.6431C347.487 94.6961 350.807 96.3976 354.19 97.7452L354.93 95.8873C351.668 94.5875 348.457 92.9429 345.296 90.9511L344.23 92.6431ZM354.209 97.7528C357.728 99.0699 361.812 99.7046 366.441 99.6844L366.433 97.6844C361.986 97.7038 358.152 97.0931 354.91 95.8797L354.209 97.7528ZM366.441 99.6844C369.967 99.669 372.783 99.0049 374.716 97.525L373.501 95.9369C372.071 97.0317 369.772 97.6699 366.433 97.6844L366.441 99.6844ZM374.716 97.525C376.615 96.0714 377.73 94.1086 378.045 91.6985L376.062 91.4394C375.814 93.3372 374.965 94.8158 373.501 95.9369L374.716 97.525ZM378.043 91.7151C378.257 90.2672 378.188 88.9537 377.753 87.828C377.31 86.6801 376.514 85.799 375.412 85.2011L374.458 86.9589C375.164 87.3422 375.624 87.8665 375.888 88.5482C376.159 89.2522 376.246 90.1926 376.064 91.4228L378.043 91.7151ZM375.412 85.2011C373.472 84.1484 370.178 83.1203 365.629 82.0916L365.188 84.0423C369.725 85.0685 372.782 86.0491 374.458 86.9589L375.412 85.2011ZM365.632 82.0921C357.934 80.3333 352.916 77.94 350.325 75.0501L348.836 76.3854C351.857 79.7547 357.392 82.2609 365.186 84.0418L365.632 82.0921ZM350.325 75.0501C347.789 72.2223 346.807 68.0323 347.631 62.2571L345.651 61.9747C344.781 68.0761 345.759 72.954 348.836 76.3854L350.325 75.0501ZM347.633 62.2438C348.389 56.3788 351.037 51.4356 355.615 47.3808L354.289 45.8837C349.361 50.2486 346.469 55.6278 345.649 61.9881L347.633 62.2438ZM355.615 47.3802C360.189 43.3222 366.664 41.2102 375.175 41.173L375.167 39.1731C366.34 39.2116 359.335 41.4057 354.288 45.8842L355.615 47.3802ZM375.175 41.173C379.241 41.1553 383.257 41.8714 387.229 43.327L387.918 41.4491C383.731 39.9148 379.479 39.1542 375.167 39.1731L375.175 41.173ZM387.241 43.3312C391.286 44.756 394.384 46.1671 396.569 47.5544L397.641 45.8659C395.275 44.3638 392.019 42.8936 387.906 41.4448L387.241 43.3312ZM396.171 46.353L391.425 58.7666L393.293 59.4808L398.039 47.0672L396.171 46.353ZM392.828 58.2401C389.524 56.4891 386.359 55.0846 383.332 54.0309L382.674 55.9198C385.59 56.9348 388.662 58.2958 391.891 60.0072L392.828 58.2401ZM383.332 54.0309C380.243 52.9561 376.927 52.4309 373.392 52.4464L373.4 54.4464C376.73 54.4318 379.819 54.926 382.674 55.9198L383.332 54.0309ZM373.392 52.4464C370.433 52.4593 368.011 53.04 366.264 54.3283L367.451 55.9379C368.72 55.0021 370.657 54.4583 373.4 54.4464L373.392 52.4464ZM366.249 54.3396C364.55 55.6431 363.578 57.5382 363.27 59.9021L365.253 60.1613C365.507 58.2173 366.267 56.8466 367.466 55.9266L366.249 54.3396ZM363.27 59.9021C362.951 62.3407 363.626 64.4036 365.372 65.9268L366.686 64.4196C365.512 63.3954 365.008 62.0307 365.253 60.1613L363.27 59.9021ZM365.372 65.9268C366.245 66.6884 367.582 67.3521 369.281 67.9545C370.999 68.5642 373.173 69.1402 375.789 69.6868L376.198 67.729C373.631 67.1927 371.553 66.6383 369.95 66.0696C368.326 65.4939 367.273 64.9315 366.686 64.4196L365.372 65.9268ZM375.785 69.6859C383.476 71.3278 388.445 73.7198 390.972 76.7037L392.498 75.4113C389.527 71.9027 384.002 69.395 376.202 67.7299L375.785 69.6859ZM390.979 76.7116C393.522 79.653 394.513 84.11 393.686 90.3128L395.669 90.5768C396.533 84.0884 395.562 78.9539 392.491 75.4034L390.979 76.7116ZM393.688 90.3041C392.765 96.798 389.758 101.797 384.659 105.377L385.808 107.014C391.382 103.1 394.671 97.5982 395.668 90.5855L393.688 90.3041ZM384.661 105.376C379.597 108.914 372.87 110.747 364.395 110.784L364.404 112.784C373.151 112.746 380.313 110.853 385.806 107.015L384.661 105.376ZM410.941 109.574L410.621 110.521L410.633 110.525L410.941 109.574ZM400.184 104.559L399.268 104.158L398.925 104.943L399.648 105.403L400.184 104.559ZM405.888 91.5304L406.421 90.6844L405.438 90.0647L404.971 91.1294L405.888 91.5304ZM415.684 96.5495L415.314 97.4785L415.324 97.4824L415.334 97.4861L415.684 96.5495ZM435.233 96.4642L435.841 97.2583L435.841 97.2583L435.233 96.4642ZM438.178 91.3022L437.189 91.1561L437.187 91.1644L437.186 91.1727L438.178 91.3022ZM436.059 85.8133L435.582 86.6922L435.582 86.6922L436.059 85.8133ZM426.533 82.8002L426.311 83.7751L426.313 83.7756L426.533 82.8002ZM410.705 75.4511L411.449 74.7834L411.449 74.7834L410.705 75.4511ZM407.765 61.8492L408.755 61.9904L408.757 61.977L407.765 61.8492ZM416.076 46.3655L416.739 47.1141L416.74 47.1135L416.076 46.3655ZM448.698 42.1213L448.354 43.0603L448.366 43.0645L448.698 42.1213ZM458.23 46.4434L459.164 46.8005L459.455 46.0372L458.766 45.5992L458.23 46.4434ZM453.484 58.857L453.015 59.7405L454.014 60.27L454.418 59.2141L453.484 58.857ZM444.127 54.7087L443.799 55.6531L443.799 55.6531L444.127 54.7087ZM427.982 54.8664L427.389 54.0616L427.381 54.0672L427.374 54.0729L427.982 54.8664ZM425.386 59.765L424.394 59.6354L424.394 59.6354L425.386 59.765ZM427.153 64.9065L426.496 65.6601L426.496 65.6601L427.153 64.9065ZM437.118 68.4412L437.327 67.4632L437.323 67.4623L437.118 68.4412ZM452.859 75.7908L452.096 76.437L452.103 76.4449L452.859 75.7908ZM455.802 90.1781L456.792 90.3188L456.793 90.3101L455.802 90.1781ZM446.358 105.929L446.931 106.748L446.933 106.747L446.358 105.929ZM425.52 110.518C419.951 110.542 415.2 109.902 411.249 108.623L410.633 110.525C414.838 111.887 419.81 112.543 425.528 112.518L425.52 110.518ZM411.261 108.627C407.245 107.269 403.735 105.63 400.721 103.715L399.648 105.403C402.819 107.417 406.479 109.121 410.621 110.521L411.261 108.627ZM401.1 104.96L406.804 91.9314L404.971 91.1294L399.268 104.158L401.1 104.96ZM405.354 92.3764C408.612 94.4294 411.932 96.1309 415.314 97.4785L416.054 95.6206C412.792 94.3208 409.581 92.6762 406.421 90.6844L405.354 92.3764ZM415.334 97.4861C418.852 98.8032 422.936 99.4379 427.566 99.4177L427.557 97.4177C423.11 97.4371 419.276 96.8264 416.035 95.613L415.334 97.4861ZM427.566 99.4177C431.092 99.4023 433.908 98.7382 435.841 97.2583L434.625 95.6702C433.195 96.765 430.897 97.4032 427.557 97.4177L427.566 99.4177ZM435.841 97.2583C437.74 95.8047 438.854 93.8419 439.169 91.4318L437.186 91.1727C436.938 93.0705 436.09 94.5491 434.625 95.6702L435.841 97.2583ZM439.167 91.4484C439.381 90.0005 439.312 88.687 438.878 87.5613C438.435 86.4134 437.638 85.5322 436.536 84.9344L435.582 86.6922C436.289 87.0755 436.749 87.5997 437.012 88.2815C437.284 88.9855 437.37 89.9259 437.189 91.1561L439.167 91.4484ZM436.536 84.9344C434.597 83.8817 431.302 82.8536 426.754 81.8249L426.313 83.7756C430.85 84.8018 433.906 85.7824 435.582 86.6922L436.536 84.9344ZM426.756 81.8254C419.058 80.0665 414.041 77.6733 411.449 74.7834L409.96 76.1187C412.982 79.488 418.516 81.9942 426.311 83.7751L426.756 81.8254ZM411.449 74.7834C408.913 71.9556 407.932 67.7656 408.755 61.9904L406.775 61.708C405.905 67.8094 406.883 72.6873 409.96 76.1187L411.449 74.7834ZM408.757 61.977C409.513 56.1121 412.162 51.1689 416.739 47.1141L415.413 45.617C410.485 49.9819 407.593 55.3611 406.774 61.7214L408.757 61.977ZM416.74 47.1135C421.313 43.0555 427.788 40.9435 436.3 40.9063L436.291 38.9063C427.464 38.9449 420.46 41.139 415.412 45.6175L416.74 47.1135ZM436.3 40.9063C440.365 40.8886 444.382 41.6047 448.354 43.0603L449.042 41.1824C444.855 39.6481 440.603 38.8875 436.291 38.9063L436.3 40.9063ZM448.366 43.0645C452.411 44.4893 455.509 45.9004 457.694 47.2876L458.766 45.5992C456.4 44.0971 453.143 42.6269 449.03 41.1781L448.366 43.0645ZM457.295 46.0863L452.55 58.4999L454.418 59.2141L459.164 46.8005L457.295 46.0863ZM453.952 57.9734C450.649 56.2224 447.483 54.8179 444.456 53.7642L443.799 55.6531C446.715 56.6681 449.787 58.0291 453.015 59.7405L453.952 57.9734ZM444.456 53.7642C441.368 52.6894 438.052 52.1642 434.516 52.1797L434.525 54.1796C437.854 54.1651 440.943 54.6593 443.799 55.6531L444.456 53.7642ZM434.516 52.1797C431.557 52.1926 429.136 52.7733 427.389 54.0616L428.576 55.6712C429.845 54.7353 431.782 54.1916 434.525 54.1796L434.516 52.1797ZM427.374 54.0729C425.674 55.3764 424.703 57.2715 424.394 59.6354L426.377 59.8946C426.631 57.9506 427.391 56.5799 428.591 55.6599L427.374 54.0729ZM424.394 59.6354C424.075 62.074 424.75 64.1369 426.496 65.6601L427.811 64.1529C426.637 63.1287 426.133 61.764 426.377 59.8946L424.394 59.6354ZM426.496 65.6601C427.369 66.4217 428.707 67.0854 430.405 67.6878C432.124 68.2975 434.298 68.8735 436.914 69.4201L437.323 67.4623C434.756 66.926 432.677 66.3715 431.074 65.8029C429.451 65.2272 428.398 64.6648 427.811 64.1529L426.496 65.6601ZM436.909 69.4192C444.6 71.0611 449.57 73.4531 452.096 76.437L453.623 75.1446C450.652 71.636 445.127 69.1283 437.327 67.4632L436.909 69.4192ZM452.103 76.4449C454.646 79.3863 455.637 83.8433 454.811 90.0461L456.793 90.3101C457.657 83.8217 456.686 78.6872 453.616 75.1367L452.103 76.4449ZM454.812 90.0374C453.889 96.5313 450.882 101.53 445.783 105.11L446.933 106.747C452.507 102.833 455.796 97.3315 456.792 90.3187L454.812 90.0374ZM445.785 105.109C440.721 108.647 433.995 110.481 425.52 110.518L425.528 112.518C434.275 112.479 441.438 110.587 446.931 106.748L445.785 105.109Z" fill="url(#paint1_linear_8_17)" mask="url(#path-5-inside-2_8_17)"/>
<defs>
<linearGradient id="paint0_linear_8_17" x1="94.9658" y1="79.988" x2="461.966" y2="79.988" gradientUnits="userSpaceOnUse">
<stop stop-color="#BFADFF"/>
<stop offset="1" stop-color="#FF98E0"/>
</linearGradient>
<linearGradient id="paint1_linear_8_17" x1="94.9755" y1="80.5869" x2="461.972" y2="78.9856" gradientUnits="userSpaceOnUse">
<stop stop-color="#BFADFF"/>
<stop offset="1" stop-color="#FF98E0"/>
</linearGradient>
</defs>
</svg>
